<?xml version="1.0" encoding="UTF-8" standalone="no"?>
<svg
   xmlns:dc="http://purl.org/dc/elements/1.1/"
   xmlns:cc="http://creativecommons.org/ns#"
   xmlns:rdf="http://www.w3.org/1999/02/22-rdf-syntax-ns#"
   xmlns:svg="http://www.w3.org/2000/svg"
   xmlns="http://www.w3.org/2000/svg"
   viewBox="0 0 1122.52 793.70667"
   height="793.70667"
   width="1122.52"
   xml:space="preserve"
   id="svg2"
   version="1.1"><metadata
     id="metadata8"><rdf:RDF><cc:Work
         rdf:about=""><dc:format>image/svg+xml</dc:format><dc:type
           rdf:resource="http://purl.org/dc/dcmitype/StillImage" /></cc:Work></rdf:RDF></metadata><defs
     id="defs6" /><g
     transform="matrix(1.3333333,0,0,-1.3333333,0,793.70667)"
     id="g10"><g
       transform="scale(0.1)"
       id="g12"><path
         id="path14"
         style="fill:#eb232c;fill-opacity:1;fill-rule:nonzero;stroke:none"
         d="M 5287.91,3570.95 4339.86,9421 c 209.85,33.81 424.2,56.57 637.17,67.63 l 310.88,-5917.68 c -63.96,-3.35 62.56,10.09 0,0 z m 0,0 c -62.46,10.29 63.75,-3.51 0,0 l 327.66,5916.72 c 212.98,-11.69 427.4,-35.1 637.34,-69.6 z m 0,0 -2186.87,5508.72 c 198.75,78.95 404.07,147.75 610.23,204.55 L 5287.91,3570.95 c -60.53,-16.69 58.34,23.18 0,0 z m 0,0 c -58.32,23.34 60.49,-16.86 0,0 l 1593.16,5708.39 c 206.04,-57.42 411.2,-126.91 609.77,-206.49 z m 0,0 -3320.83,4908.59 c 176.64,119.62 361.66,230.84 549.99,330.56 L 5287.91,3570.95 c -55.86,-29.59 52.58,35.59 0,0 z m 0,0 c -52.58,35.83 55.74,-29.74 0,0 l 2786.04,5230.53 c 187.98,-100.29 372.77,-212.12 549.16,-332.41 z m 0,0 L 990.906,7652 c 146.564,154.28 303.194,302.28 465.544,439.95 l 3831.46,-4521 c -48.69,-41.3 43.95,46.21 0,0 z m 0,0 c -43.59,46.21 48.54,-41.38 0,0 l 3844.73,4508.82 c 162.07,-138.33 318.34,-286.94 464.43,-441.74 z m 0,0 -5073.812,3063.26 c 110.265,182.33 231.738,360.68 361.031,530.05 L 5287.91,3570.95 c -38.59,-50.53 32.91,54.38 0,0 z m 0,0 c -32.62,54.31 38.4,-50.69 0,0 l 4722.99,3578.46 c 128.9,-169.94 249.8,-348.66 359.4,-531.28 z m 0,0 -5615.105,1898.46 c 68.488,202.52 148.925,403.53 239.0739,597.47 L 5287.91,3570.95 c -26.48,-57.04 20.14,59.55 0,0 z m 0,0 c -19.96,59.67 26.43,-57.25 0,0 l 5382.79,2479.17 c 89.4,-194.02 169.2,-395.12 237,-597.67 z m 0,0 -5891.586,644.04 c 23.067,212.57 58.035,426 103.946,634.29 L 5287.91,3570.95 c -13.5,-61.32 6.84,62.93 0,0 z m 0,0 c -6.7,63.3 13.36,-61.32 0,0 l 5790.49,1260.84 c 45.1,-208.1 79.5,-421.44 101.9,-634.08 z m -5892.828,-632.7 c -22.25,208.77 -33.539,421.58 -33.539,632.57 l 5926.367,0.13 c 0,-67.9 -6.66,62.68 0,0 z m 11784.018,-5.86 -5891.19,638.56 c 6.8,63.33 0,-64.66 0,0 l 5925.29,-0.13 c 0,-212.9 -11.5,-427.71 -34.1,-638.43 z M -331.098,1683.95 c -68.058,202.74 -125.687,411.47 -171.261,620.41 L 5287.91,3570.95 c 13.4,-61.35 -20,59.51 0,0 z M 10903.9,1678.09 5287.91,3570.95 c 20.1,59.64 -13.42,-61.32 0,0 L 11075.8,2298.39 c -45.7,-208.83 -103.6,-417.48 -171.9,-620.3 z M 207.52,518.391 C 97.3477,701.449 -3.91016,892.512 -93.4141,1086.16 L 5287.91,3570.95 c 26.39,-57.08 -32.6,54.15 0,0 z M 10363.6,512.371 5287.91,3570.95 c 32.64,54.06 -26.46,-57.13 0,0 L 10665.4,1080.14 C 10575.6,886.352 10474,695.359 10363.6,512.371 Z M 982.102,-501.051 C 835.77,-346.379 696.227,-181.969 567.387,-12.3984 L 5287.91,3570.95 c 38.54,-50.69 -43.75,46.21 0,0 z M 9587.5,-506.5 5287.91,3570.95 c 43.67,46.04 -38.53,-50.53 0,0 L 10003.3,-17.8281 C 9874.12,-187.449 9734.2,-351.871 9587.5,-506.5 Z m -7631.12,-824.16 c -176.22,119.91 -347.8,250.78 -509.99,388.93 l 3841.52,4512.68 c 48.38,-41.23 -52.62,35.8 0,0 z m 6655.75,-4.27 -3324.22,4905.88 c 52.27,35.47 -48.44,-41.17 0,0 L 9123.03,-946.32 c -162.7,-138.22 -334.57,-269.01 -510.9,-388.61 z m -5522.68,-598.52 c -198.42,79.3 -394.74,170.41 -583.47,270.86 l 2781.93,5233.54 c 55.66,-29.62 -58.4,23.34 0,0 z m 4389.83,-2.4 -2191.37,5506.8 c 58.48,23.27 -55.57,-29.5 0,0 l 2775.08,-5236.63 c -188.75,-100.19 -385.14,-191.09 -583.71,-270.17 z m -3151.29,-341.64 c -211.43,34.49 -423.02,80.99 -628.92,138.22 l 1588.84,5710.22 c 60.14,-16.69 -62.09,10.12 0,0 z m 1912.4,-0.94 -952.48,5849.38 c 61.93,10.04 -60.41,-16.73 0,0 l 1581.45,-5711.94 c -206.14,-57.03 -417.76,-103.28 -628.97,-137.44 z m -953.01,-76.62 c -106.83,0 -215.19,2.93 -322.05,8.67 l 322.58,5917.33 c 64.77,-3.47 -63.75,-3.43 0,0 l 315.96,-5917.62 c -104.77,-5.57 -211.25,-8.38 -316.49,-8.38" /><path
         id="path16"
         style="fill:#eb232c;fill-opacity:1;fill-rule:nonzero;stroke:none"
         d="m 6259.45,3566.78 c 0,-536.85 -435.21,-972.07 -972.07,-972.07 -536.85,0 -972.05,435.22 -972.05,972.07 0,536.86 435.2,972.07 972.05,972.07 536.86,0 972.07,-435.21 972.07,-972.07" /><path
         id="path18"
         style="fill:#ffffff;fill-opacity:1;fill-rule:nonzero;stroke:none"
         d="m 5531.95,3696.01 c -32.26,-129.28 -231.4,-63.6 -296.05,-47.5 l 56.97,228.48 c 64.65,-16.09 272.72,-46.15 239.08,-180.98 z m -35.37,-368.72 c -35.39,-142.09 -274.63,-65.31 -352.22,-45.99 l 62.83,251.89 c 77.58,-19.35 326.29,-57.69 289.43,-205.9 z m 261.51,366.66 c 20.72,138.79 -84.95,213.39 -229.44,263.16 l 46.88,188 -114.48,28.52 -45.62,-183.05 c -30.06,7.5 -60.96,14.57 -91.66,21.58 l 45.96,184.25 -114.36,28.52 -46.91,-187.94 c -24.91,5.68 -49.34,11.29 -73.07,17.18 l 0.12,0.59 -157.81,39.4 -30.45,-122.22 c 0,0 84.92,-19.46 83.12,-20.67 46.35,-11.57 54.77,-42.23 53.32,-66.55 l -53.4,-214.17 c 3.21,-0.82 7.35,-1.99 11.92,-3.81 l -12.07,2.99 -74.87,-300.02 c -5.68,-14.08 -20.04,-35.21 -52.44,-27.18 1.13,-1.66 -83.18,20.76 -83.18,20.76 l -56.82,-131.02 148.97,-37.13 c 27.69,-6.95 54.84,-14.22 81.54,-21.07 l -47.36,-190.16 114.31,-28.53 46.94,188.12 c 31.19,-8.47 61.5,-16.29 91.17,-23.65 l -46.74,-187.26 114.41,-28.52 47.37,189.8 c 195.13,-36.93 341.91,-22.03 403.61,154.42 49.77,142.11 -2.44,224.09 -105.12,277.57 74.77,17.31 131.1,66.5 146.12,168.09 h 0.04" /><path
         id="path20"
         style="fill:#236dbc;fill-opacity:1;fill-rule:nonzero;stroke:none"
         d="M 8749.15,1101.25 H -80 V -77.1992 H 8749.15 V 1101.25" /><path
         id="path22"
         style="fill:#236dbc;fill-opacity:1;fill-rule:nonzero;stroke:none"
         d="m 8395.95,1188.84 c -286.5,154.18 -377.87,125.62 -849.97,505.97 -547.9,441.45 -527.71,636.9 -660.76,628.96 -133.03,-7.98 -254.92,-328.38 -499.54,-712.61 -240.11,-377.18 -413.34,-424.3 -868.73,-537.17 l 23.01,-385.42 2875.61,171.75 -19.62,328.52" /><path
         id="path24"
         style="fill:none;stroke:#ffffff;stroke-width:30;stroke-linecap:round;stroke-linejoin:miter;stroke-miterlimit:10;stroke-dasharray:none;stroke-opacity:1"
         d="m 8395.97,1188.44 c -286.5,154.2 -377.87,125.63 -849.97,505.98 -547.9,441.43 -527.72,636.89 -660.75,628.93 -133.04,-7.94 -254.94,-328.35 -499.55,-712.58 -240.09,-377.17 -413.32,-424.3 -868.75,-537.18" /><path
         id="path26"
         style="fill:none;stroke:#ffffff;stroke-width:30;stroke-linecap:round;stroke-linejoin:miter;stroke-miterlimit:10;stroke-dasharray:none;stroke-opacity:1"
         d="m 8115.86,1217.83 c -195.38,117.8 -467.72,251.53 -686.57,428.4 -254.66,205.74 -426.63,443.88 -517,438.48 -90.36,-5.39 -163.2,-260.92 -327.65,-550.13 -161.45,-283.88 -276.05,-298.66 -424.62,-390.38" /><path
         id="path28"
         style="fill:none;stroke:#ffffff;stroke-width:30;stroke-linecap:round;stroke-linejoin:miter;stroke-miterlimit:10;stroke-dasharray:none;stroke-opacity:1"
         d="m 8115.86,1217.83 c -119.36,10.03 -421.95,163.44 -629.84,323.9 -241.92,186.69 -436.74,416.41 -522.79,411.29 -86.03,-5.16 -126.69,-191.03 -292.21,-444.74 -90.16,-138.23 -204.65,-255.22 -346.31,-339.12" /><path
         id="path30"
         style="fill:none;stroke:#ffffff;stroke-width:30;stroke-linecap:round;stroke-linejoin:miter;stroke-miterlimit:10;stroke-dasharray:none;stroke-opacity:1"
         d="m 7610.25,1287.7 c -76.58,6.37 -171.38,72.77 -304.72,174.87 -155.18,118.79 -280.14,265.01 -335.34,261.72 -55.22,-3.29 -79.35,-155.22 -185.65,-316.81 -57.89,-88.06 -196.38,-232.85 -287.31,-286.33" /><path
         id="path32"
         style="fill:none;stroke:#ffffff;stroke-width:30;stroke-linecap:round;stroke-linejoin:miter;stroke-miterlimit:10;stroke-dasharray:none;stroke-opacity:1"
         d="m 7788.03,1088.73 c -93.36,5.35 -206.15,36.98 -367.54,137.43 -187.77,116.85 -340.32,295.11 -407.75,291.08 -67.4,-4.02 -61.62,-171.01 -193.43,-334.13 -71.81,-88.86 -262.3,-183.751 -396.61,-191.77" /><path
         id="path34"
         style="fill:#236dbc;fill-opacity:1;fill-rule:nonzero;stroke:none"
         d="m 6150.21,1045.34 c 252.11,145.73 341.81,136.93 742.18,466.85 464.66,382.9 422.25,519.33 548.83,530.44 126.58,11.11 279.97,-201.36 556.88,-443.73 271.79,-237.93 441.01,-249.61 884.55,-272.49 l 24.31,-276.94 -2736.03,-240.189 -20.72,236.059" /><path
         id="path36"
         style="fill:none;stroke:#ffffff;stroke-width:30;stroke-linecap:round;stroke-linejoin:miter;stroke-miterlimit:10;stroke-dasharray:none;stroke-opacity:1"
         d="m 6150.23,1045.06 c 252.12,145.73 341.82,136.93 742.2,466.85 464.64,382.88 422.23,519.33 548.81,530.43 126.58,11.11 279.98,-201.36 556.88,-443.72 271.81,-237.93 441,-249.61 884.55,-272.49" /><path
         id="path38"
         style="fill:none;stroke:#ffffff;stroke-width:30;stroke-linecap:round;stroke-linejoin:miter;stroke-miterlimit:10;stroke-dasharray:none;stroke-opacity:1"
         d="m 6411.23,1101.25 c 170.42,108.38 411.63,237.77 597.18,391.09 215.88,178.38 349.82,369.38 435.81,376.92 85.97,7.55 185.3,-164.97 375.15,-349.87 186.36,-181.5 296.36,-177.57 447.63,-224.08" /><path
         id="path40"
         style="fill:none;stroke:#ffffff;stroke-width:30;stroke-linecap:round;stroke-linejoin:miter;stroke-miterlimit:10;stroke-dasharray:none;stroke-opacity:1"
         d="m 6411.23,1101.25 c 111.51,22.16 378.94,169.36 556.08,309.65 206.14,163.21 362.68,351.1 444.56,358.29 81.85,7.18 142.44,-119.86 329.06,-279.4 101.67,-86.91 223.76,-155.66 367.56,-197.48" /><path
         id="path42"
         style="fill:none;stroke:#ffffff;stroke-width:30;stroke-linecap:round;stroke-linejoin:miter;stroke-miterlimit:10;stroke-dasharray:none;stroke-opacity:1"
         d="m 6880.34,1214.64 c 71.56,14.15 153.15,73.32 266.88,162.72 132.34,104.01 232.87,223.72 285.41,228.33 52.52,4.61 93.46,-100.37 213.14,-201.87 65.2,-55.32 213.27,-140.81 305.53,-167.38" /><path
         id="path44"
         style="fill:none;stroke:#ffffff;stroke-width:30;stroke-linecap:round;stroke-linejoin:miter;stroke-miterlimit:10;stroke-dasharray:none;stroke-opacity:1"
         d="m 6736.24,1050.76 c 87.52,15.56 190.25,52.26 330.65,144.01 163.35,106.75 286.13,252.71 350.27,258.34 64.12,5.63 78.63,-113.84 222.6,-213.19 78.42,-54.15 269.64,-97.61 397.44,-86.39" /><path
         id="path46"
         style="fill:#236dbc;fill-opacity:1;fill-rule:nonzero;stroke:none"
         d="m 6695.75,967.191 c 278.49,123.129 371.96,106.519 823.28,400.159 523.77,340.79 491.78,480.41 625.86,480.41 134.08,0 275.73,-225.07 544.44,-490.73 263.76,-260.78 440.54,-287.22 904.68,-348.79 V 730.23 H 6695.75 v 236.961" /><path
         id="path48"
         style="fill:none;stroke:#ffffff;stroke-width:30;stroke-linecap:round;stroke-linejoin:miter;stroke-miterlimit:10;stroke-dasharray:none;stroke-opacity:1"
         d="m 6695.75,966.91 c 278.49,123.13 371.96,106.51 823.28,400.16 523.77,340.79 491.78,480.41 625.86,480.41 134.08,0 275.73,-225.07 544.44,-490.73 263.76,-260.79 440.54,-287.22 904.68,-348.79" /><path
         id="path50"
         style="fill:none;stroke:#ffffff;stroke-width:30;stroke-linecap:round;stroke-linejoin:miter;stroke-miterlimit:10;stroke-dasharray:none;stroke-opacity:1"
         d="m 6975.3,1000.06 c 189.16,93.06 454.65,200.87 663.83,337.37 243.42,158.83 401.84,337.36 492.91,337.36 91.08,0 179.56,-180.53 362.07,-381.34 179.16,-197.11 295.15,-202.8 449.86,-262.37" /><path
         id="path52"
         style="fill:none;stroke:#ffffff;stroke-width:30;stroke-linecap:round;stroke-linejoin:miter;stroke-miterlimit:10;stroke-dasharray:none;stroke-opacity:1"
         d="m 6975.3,1000.06 c 119.27,12.32 413.97,135.58 613.13,259.83 231.75,144.56 413.64,318.05 500.37,318.05 86.7,0 138.68,-131.86 320.13,-307.1 98.84,-95.48 220.85,-174.65 368.15,-228.88" /><path
         id="path54"
         style="fill:none;stroke:#ffffff;stroke-width:30;stroke-linecap:round;stroke-linejoin:miter;stroke-miterlimit:10;stroke-dasharray:none;stroke-opacity:1"
         d="m 7478.89,1071.98 c 76.53,7.85 167.76,59.66 295.55,138.77 148.71,92.04 265.44,202.5 321.1,202.5 55.62,0 88.98,-108.16 205.42,-219.74 63.42,-60.8 211.2,-158.92 305.73,-193.45" /><path
         id="path56"
         style="fill:none;stroke:#ffffff;stroke-width:30;stroke-linecap:round;stroke-linejoin:miter;stroke-miterlimit:10;stroke-dasharray:none;stroke-opacity:1"
         d="m 7312.29,921.34 c 93.44,7.851 204.83,35.43 360.86,114.55 181.59,92.05 324.11,226.71 392.06,226.71 67.92,0 72.14,-120.27 214.3,-231.84 77.45,-60.799 274.45,-120.811 409.82,-120.811" /><path
         id="path58"
         style="fill:#236dbc;fill-opacity:1;fill-rule:nonzero;stroke:none"
         d="M 1693.36,1272.02 C 1406.87,1426.2 1315.49,1397.63 843.391,1777.99 295.488,2219.43 315.68,2414.88 182.633,2406.94 49.5977,2398.96 -72.2852,2078.56 -316.902,1694.33 -557.02,1317.16 -730.242,1270.04 -1185.63,1157.17 l 23,-385.42 2875.61,171.742 -19.62,328.528" /><path
         id="path60"
         style="fill:none;stroke:#ffffff;stroke-width:30;stroke-linecap:round;stroke-linejoin:miter;stroke-miterlimit:10;stroke-dasharray:none;stroke-opacity:1"
         d="m 1693.38,1271.62 c -286.5,154.2 -377.87,125.62 -849.974,505.97 -547.894,441.43 -527.715,636.89 -660.742,628.93 -133.0468,-7.94 -254.9413,-328.35 -499.551,-712.58 -240.093,-377.17 -413.316,-424.29 -868.743,-537.18" /><path
         id="path62"
         style="fill:none;stroke:#ffffff;stroke-width:30;stroke-linecap:round;stroke-linejoin:miter;stroke-miterlimit:10;stroke-dasharray:none;stroke-opacity:1"
         d="M 1413.27,1301 C 1217.89,1418.81 945.559,1552.54 726.699,1729.4 472.043,1935.14 300.066,2173.29 209.703,2167.89 119.348,2162.5 46.5,1906.96 -117.949,1617.75 -279.395,1333.87 -393.992,1319.1 -542.566,1227.37" /><path
         id="path64"
         style="fill:none;stroke:#ffffff;stroke-width:30;stroke-linecap:round;stroke-linejoin:miter;stroke-miterlimit:10;stroke-dasharray:none;stroke-opacity:1"
         d="M 1413.27,1301 C 1293.92,1311.03 991.316,1464.44 783.43,1624.9 541.516,1811.59 346.688,2041.32 260.641,2036.2 174.605,2031.03 133.953,1845.16 -31.5742,1591.45 -121.73,1453.22 -236.223,1336.24 -377.883,1252.33" /><path
         id="path66"
         style="fill:none;stroke:#ffffff;stroke-width:30;stroke-linecap:round;stroke-linejoin:miter;stroke-miterlimit:10;stroke-dasharray:none;stroke-opacity:1"
         d="m 907.668,1370.88 c -76.582,6.36 -171.391,72.76 -304.73,174.86 -155.172,118.8 -280.133,265.01 -335.344,261.73 -55.211,-3.29 -79.34,-155.23 -185.6409,-316.82 C 24.0586,1402.59 -114.426,1257.8 -205.359,1204.32" /><path
         id="path68"
         style="fill:none;stroke:#ffffff;stroke-width:30;stroke-linecap:round;stroke-linejoin:miter;stroke-miterlimit:10;stroke-dasharray:none;stroke-opacity:1"
         d="m 1085.44,1171.9 c -93.362,5.35 -206.155,36.98 -367.542,137.43 -187.761,116.85 -340.32,295.11 -407.742,291.09 -67.398,-4.03 -61.625,-171.02 -193.441,-334.13 -71.8048,-88.87 -262.289,-183.75 -396.61,-191.78" /><path
         id="path70"
         style="fill:#236dbc;fill-opacity:1;fill-rule:nonzero;stroke:none"
         d="m -256.086,1511.73 c 286.5001,154.18 377.871,125.61 849.969,505.96 547.907,441.45 527.717,636.9 660.757,628.96 133.04,-7.98 254.92,-328.38 499.54,-712.61 240.12,-377.18 413.33,-424.3 868.74,-537.17 l -23.01,-385.42 -2875.613,171.75 19.617,328.53" /><path
         id="path72"
         style="fill:none;stroke:#ffffff;stroke-width:30;stroke-linecap:round;stroke-linejoin:miter;stroke-miterlimit:10;stroke-dasharray:none;stroke-opacity:1"
         d="m -256.105,1511.33 c 286.4917,154.19 377.875,125.62 849.972,505.97 547.893,441.43 527.713,636.89 660.743,628.93 133.05,-7.94 254.94,-328.35 499.55,-712.58 240.1,-377.17 413.32,-424.3 868.75,-537.18" /><path
         id="path74"
         style="fill:none;stroke:#ffffff;stroke-width:30;stroke-linecap:round;stroke-linejoin:miter;stroke-miterlimit:10;stroke-dasharray:none;stroke-opacity:1"
         d="m 24,1540.71 c 195.387,117.8 467.723,251.53 686.574,428.4 254.66,205.74 426.636,443.89 516.996,438.48 90.36,-5.39 163.21,-260.92 327.65,-550.13 161.45,-283.88 276.05,-298.65 424.63,-390.38" /><path
         id="path76"
         style="fill:none;stroke:#ffffff;stroke-width:30;stroke-linecap:round;stroke-linejoin:miter;stroke-miterlimit:10;stroke-dasharray:none;stroke-opacity:1"
         d="m 24,1540.71 c 119.359,10.03 421.957,163.44 629.844,323.9 241.914,186.69 436.746,416.41 522.796,411.3 86.03,-5.17 126.68,-191.04 292.2,-444.75 90.17,-138.23 204.65,-255.22 346.32,-339.12" /><path
         id="path78"
         style="fill:none;stroke:#ffffff;stroke-width:30;stroke-linecap:round;stroke-linejoin:miter;stroke-miterlimit:10;stroke-dasharray:none;stroke-opacity:1"
         d="m 529.609,1610.58 c 76.582,6.37 171.383,72.77 304.727,174.87 155.176,118.8 280.134,265.01 335.344,261.72 55.21,-3.29 79.34,-155.22 185.64,-316.81 57.9,-88.06 196.38,-232.85 287.32,-286.33" /><path
         id="path80"
         style="fill:none;stroke:#ffffff;stroke-width:30;stroke-linecap:round;stroke-linejoin:miter;stroke-miterlimit:10;stroke-dasharray:none;stroke-opacity:1"
         d="m 351.832,1411.61 c 93.367,5.35 206.16,36.98 367.539,137.43 187.77,116.85 340.329,295.11 407.749,291.08 67.4,-4.02 61.63,-171.01 193.44,-334.13 71.8,-88.86 262.29,-183.75 396.6,-191.77" /><path
         id="path82"
         style="fill:#236dbc;fill-opacity:1;fill-rule:nonzero;stroke:none"
         d="m -552.383,1128.51 c 252.125,145.74 341.82,136.94 742.192,466.86 464.656,382.89 422.242,519.32 548.828,530.44 126.574,11.1 279.963,-201.37 556.873,-443.73 271.8,-237.93 441.01,-249.61 884.54,-272.49 l 24.32,-276.95 -2736.03,-240.179 -20.723,236.049" /><path
         id="path84"
         style="fill:none;stroke:#ffffff;stroke-width:30;stroke-linecap:round;stroke-linejoin:miter;stroke-miterlimit:10;stroke-dasharray:none;stroke-opacity:1"
         d="m -552.359,1128.23 c 252.125,145.73 341.824,136.93 742.199,466.86 464.64,382.88 422.234,519.32 548.816,530.42 126.574,11.12 279.974,-201.35 556.874,-443.72 271.81,-237.93 441,-249.61 884.55,-272.49" /><path
         id="path86"
         style="fill:none;stroke:#ffffff;stroke-width:30;stroke-linecap:round;stroke-linejoin:miter;stroke-miterlimit:10;stroke-dasharray:none;stroke-opacity:1"
         d="m -291.355,1184.42 c 170.421,108.38 411.625,237.77 597.175,391.09 215.883,178.38 349.825,369.38 435.813,376.93 85.969,7.55 185.297,-164.97 375.147,-349.87 186.37,-181.51 296.36,-177.57 447.63,-224.09" /><path
         id="path88"
         style="fill:none;stroke:#ffffff;stroke-width:30;stroke-linecap:round;stroke-linejoin:miter;stroke-miterlimit:10;stroke-dasharray:none;stroke-opacity:1"
         d="m -291.355,1184.42 c 111.507,22.16 378.9292,169.37 556.078,309.65 206.136,163.21 362.679,351.1 444.55,358.29 81.856,7.19 142.45,-119.85 329.067,-279.39 101.67,-86.92 223.76,-155.67 367.56,-197.48" /><path
         id="path90"
         style="fill:none;stroke:#ffffff;stroke-width:30;stroke-linecap:round;stroke-linejoin:miter;stroke-miterlimit:10;stroke-dasharray:none;stroke-opacity:1"
         d="m 177.754,1297.81 c 71.562,14.15 153.148,73.32 266.879,162.72 132.34,104.02 232.871,223.73 285.402,228.33 52.52,4.61 93.473,-100.37 213.145,-201.87 65.2,-55.31 213.28,-140.81 305.54,-167.37" /><path
         id="path92"
         style="fill:none;stroke:#ffffff;stroke-width:30;stroke-linecap:round;stroke-linejoin:miter;stroke-miterlimit:10;stroke-dasharray:none;stroke-opacity:1"
         d="m 33.6484,1133.93 c 87.5276,15.56 190.2616,52.27 330.6606,144.02 163.351,106.74 286.121,252.7 350.265,258.34 64.121,5.62 78.625,-113.84 222.594,-213.2 78.432,-54.15 269.642,-97.6 397.432,-86.38" /><path
         id="path94"
         style="fill:#236dbc;fill-opacity:1;fill-rule:nonzero;stroke:none"
         d="m 3970.55,1356.52 c -228.81,101.7 -305.62,87.98 -676.44,330.51 -430.36,281.47 -404.07,396.79 -514.24,396.79 -110.17,0 -226.55,-185.89 -447.34,-405.32 -216.71,-215.39 -361.97,-237.22 -743.34,-288.07 v -229.62 h 2381.36 v 195.71" /><path
         id="path96"
         style="fill:none;stroke:#ffffff;stroke-width:30;stroke-linecap:round;stroke-linejoin:miter;stroke-miterlimit:10;stroke-dasharray:none;stroke-opacity:1"
         d="m 3970.55,1356.29 c -228.81,101.7 -305.62,87.97 -676.44,330.5 -430.36,281.48 -404.07,396.79 -514.24,396.79 -110.17,0 -226.55,-185.89 -447.34,-405.31 -216.71,-215.39 -361.97,-237.23 -743.34,-288.08" /><path
         id="path98"
         style="fill:none;stroke:#ffffff;stroke-width:30;stroke-linecap:round;stroke-linejoin:miter;stroke-miterlimit:10;stroke-dasharray:none;stroke-opacity:1"
         d="m 3740.86,1383.67 c -155.42,76.86 -373.55,165.91 -545.44,278.64 -200,131.18 -330.16,278.64 -405,278.64 -74.82,0 -147.53,-149.11 -297.5,-314.96 -147.2,-162.8 -242.5,-167.5 -369.62,-216.7" /><path
         id="path100"
         style="fill:none;stroke:#ffffff;stroke-width:30;stroke-linecap:round;stroke-linejoin:miter;stroke-miterlimit:10;stroke-dasharray:none;stroke-opacity:1"
         d="m 3740.86,1383.67 c -97.99,10.17 -340.13,111.98 -503.77,214.6 -190.42,119.4 -339.87,262.68 -411.13,262.68 -71.24,0 -113.95,-108.89 -263.04,-253.64 -81.22,-78.86 -181.46,-144.25 -302.5,-189.03" /><path
         id="path102"
         style="fill:none;stroke:#ffffff;stroke-width:30;stroke-linecap:round;stroke-linejoin:miter;stroke-miterlimit:10;stroke-dasharray:none;stroke-opacity:1"
         d="m 3327.09,1443.07 c -62.89,6.49 -137.84,49.27 -242.85,114.61 -122.18,76.03 -218.09,167.26 -263.82,167.26 -45.71,0 -73.12,-89.34 -168.78,-181.5 -52.12,-50.21 -173.54,-131.26 -251.22,-159.77" /><path
         id="path104"
         style="fill:none;stroke:#ffffff;stroke-width:30;stroke-linecap:round;stroke-linejoin:miter;stroke-miterlimit:10;stroke-dasharray:none;stroke-opacity:1"
         d="m 3463.98,1318.65 c -76.79,6.48 -168.29,29.27 -296.51,94.61 -149.19,76.02 -266.29,187.25 -322.12,187.25 -55.81,0 -59.29,-99.33 -176.09,-191.49 -63.63,-50.21 -225.5,-99.77 -336.73,-99.77" /><path
         id="path106"
         style="fill:#236dbc;fill-opacity:1;fill-rule:nonzero;stroke:none"
         d="m 2599.87,1221.04 c 228.82,101.7 305.62,87.98 676.44,330.51 430.36,281.47 404.08,396.79 514.25,396.79 110.17,0 226.55,-185.89 447.33,-405.32 216.72,-215.39 361.97,-237.22 743.34,-288.07 V 1025.33 H 2599.87 v 195.71" /><path
         id="path108"
         style="fill:none;stroke:#ffffff;stroke-width:30;stroke-linecap:round;stroke-linejoin:miter;stroke-miterlimit:10;stroke-dasharray:none;stroke-opacity:1"
         d="m 2599.87,1220.81 c 228.82,101.7 305.62,87.98 676.44,330.51 430.36,281.47 404.08,396.78 514.25,396.78 110.17,0 226.55,-185.89 447.33,-405.31 216.72,-215.39 361.97,-237.23 743.34,-288.08" /><path
         id="path110"
         style="fill:none;stroke:#ffffff;stroke-width:30;stroke-linecap:round;stroke-linejoin:miter;stroke-miterlimit:10;stroke-dasharray:none;stroke-opacity:1"
         d="m 2829.56,1248.19 c 155.42,76.87 373.56,165.91 545.44,278.64 200,131.18 330.16,278.65 405,278.65 74.83,0 147.53,-149.12 297.5,-314.97 147.21,-162.8 242.5,-167.5 369.63,-216.69" /><path
         id="path112"
         style="fill:none;stroke:#ffffff;stroke-width:30;stroke-linecap:round;stroke-linejoin:miter;stroke-miterlimit:10;stroke-dasharray:none;stroke-opacity:1"
         d="m 2829.56,1248.19 c 98,10.18 340.13,111.98 503.77,214.6 190.42,119.4 339.88,262.69 411.13,262.69 71.25,0 113.96,-108.9 263.04,-253.65 81.22,-78.85 181.46,-144.24 302.5,-189.03" /><path
         id="path114"
         style="fill:none;stroke:#ffffff;stroke-width:30;stroke-linecap:round;stroke-linejoin:miter;stroke-miterlimit:10;stroke-dasharray:none;stroke-opacity:1"
         d="m 3243.33,1307.59 c 62.89,6.49 137.84,49.27 242.85,114.61 122.19,76.03 218.1,167.26 263.82,167.26 45.71,0 73.13,-89.34 168.79,-181.49 52.12,-50.22 173.54,-131.26 251.21,-159.78" /><path
         id="path116"
         style="fill:none;stroke:#ffffff;stroke-width:30;stroke-linecap:round;stroke-linejoin:miter;stroke-miterlimit:10;stroke-dasharray:none;stroke-opacity:1"
         d="m 3106.45,1183.17 c 76.78,6.49 168.29,29.27 296.51,94.61 149.19,76.03 266.29,187.26 322.12,187.26 55.81,0 59.28,-99.34 176.09,-191.5 63.63,-50.21 225.5,-99.77 336.72,-99.77" /><path
         id="path118"
         style="fill:#236dbc;fill-opacity:1;fill-rule:nonzero;stroke:none"
         d="M -6.83203,1050.37 C 271.648,1173.49 365.129,1156.88 816.441,1450.52 c 523.769,340.8 491.779,480.41 625.859,480.41 134.09,0 275.73,-225.06 544.44,-490.73 263.76,-260.78 440.54,-287.21 904.69,-348.79 v -278 H -6.83203 v 236.96" /><path
         id="path120"
         style="fill:none;stroke:#ffffff;stroke-width:30;stroke-linecap:round;stroke-linejoin:miter;stroke-miterlimit:10;stroke-dasharray:none;stroke-opacity:1"
         d="M -6.83203,1050.09 C 271.648,1173.21 365.129,1156.6 816.441,1450.24 c 523.769,340.79 491.779,480.41 625.859,480.41 134.09,0 275.73,-225.07 544.44,-490.73 263.76,-260.78 440.54,-287.22 904.69,-348.79" /><path
         id="path122"
         style="fill:none;stroke:#ffffff;stroke-width:30;stroke-linecap:round;stroke-linejoin:miter;stroke-miterlimit:10;stroke-dasharray:none;stroke-opacity:1"
         d="m 272.715,1083.23 c 189.156,93.07 454.644,200.88 663.832,337.37 243.413,158.83 401.823,337.37 492.903,337.37 91.08,0 179.56,-180.54 362.08,-381.34 179.16,-197.11 295.14,-202.8 449.86,-262.37" /><path
         id="path124"
         style="fill:none;stroke:#ffffff;stroke-width:30;stroke-linecap:round;stroke-linejoin:miter;stroke-miterlimit:10;stroke-dasharray:none;stroke-opacity:1"
         d="m 272.715,1083.23 c 119.265,12.32 413.961,135.59 613.121,259.83 231.754,144.56 413.644,318.05 500.374,318.05 86.71,0 138.68,-131.85 320.13,-307.1 98.85,-95.48 220.85,-174.65 368.16,-228.88" /><path
         id="path126"
         style="fill:none;stroke:#ffffff;stroke-width:30;stroke-linecap:round;stroke-linejoin:miter;stroke-miterlimit:10;stroke-dasharray:none;stroke-opacity:1"
         d="m 776.301,1155.15 c 76.535,7.86 167.758,59.66 295.559,138.77 148.71,92.04 265.43,202.5 321.08,202.5 55.64,0 89,-108.16 205.43,-219.73 63.43,-60.8 211.21,-158.93 305.74,-193.46" /><path
         id="path128"
         style="fill:none;stroke:#ffffff;stroke-width:30;stroke-linecap:round;stroke-linejoin:miter;stroke-miterlimit:10;stroke-dasharray:none;stroke-opacity:1"
         d="m 609.695,1004.51 c 93.45,7.85 204.832,35.44 360.875,114.55 181.57,92.05 324.09,226.72 392.04,226.72 67.93,0 72.15,-120.27 214.31,-231.85 77.45,-60.8 274.44,-120.809 409.82,-120.809" /><path
         id="path130"
         style="fill:#236dbc;fill-opacity:1;fill-rule:nonzero;stroke:none"
         d="m 6570,1039.26 c -257.57,114.48 -344.04,99.03 -761.48,372.05 -484.45,316.86 -454.86,446.67 -578.88,446.67 -124.01,0 -255.02,-209.26 -503.56,-456.26 -243.96,-242.47 -407.48,-267.05 -836.78,-324.3 V 818.941 H 6570 v 220.319" /><path
         id="path132"
         style="fill:none;stroke:#ffffff;stroke-width:30;stroke-linecap:round;stroke-linejoin:miter;stroke-miterlimit:10;stroke-dasharray:none;stroke-opacity:1"
         d="m 6570,1038.99 c -257.57,114.48 -344.04,99.03 -761.48,372.05 -484.45,316.87 -454.86,446.67 -578.88,446.67 -124.01,0 -255.02,-209.26 -503.56,-456.26 C 4482.12,1158.98 4318.6,1134.4 3889.3,1077.16" /><path
         id="path134"
         style="fill:none;stroke:#ffffff;stroke-width:30;stroke-linecap:round;stroke-linejoin:miter;stroke-miterlimit:10;stroke-dasharray:none;stroke-opacity:1"
         d="m 6311.44,1069.81 c -174.95,86.53 -420.51,186.77 -614,313.67 -225.14,147.68 -371.67,313.68 -455.91,313.68 -84.24,0 -166.08,-167.86 -334.9,-354.56 -165.71,-183.27 -272.98,-188.55 -416.09,-243.94" /><path
         id="path136"
         style="fill:none;stroke:#ffffff;stroke-width:30;stroke-linecap:round;stroke-linejoin:miter;stroke-miterlimit:10;stroke-dasharray:none;stroke-opacity:1"
         d="m 6311.44,1069.81 c -110.31,11.46 -382.9,126.07 -567.1,241.58 -214.37,134.42 -382.6,295.71 -462.82,295.71 -80.19,0 -128.26,-122.59 -296.09,-285.53 -91.44,-88.77 -204.27,-162.38 -340.53,-212.79" /><path
         id="path138"
         style="fill:none;stroke:#ffffff;stroke-width:30;stroke-linecap:round;stroke-linejoin:miter;stroke-miterlimit:10;stroke-dasharray:none;stroke-opacity:1"
         d="m 5845.65,1136.69 c -70.79,7.3 -155.15,55.46 -273.37,129.01 -137.55,85.59 -245.5,188.28 -296.98,188.28 -51.47,0 -82.31,-100.56 -190.01,-204.31 -58.68,-56.52 -195.34,-147.76 -282.78,-179.86" /><path
         id="path140"
         style="fill:none;stroke:#ffffff;stroke-width:30;stroke-linecap:round;stroke-linejoin:miter;stroke-miterlimit:10;stroke-dasharray:none;stroke-opacity:1"
         d="m 5999.76,996.621 c -86.45,7.299 -189.46,32.949 -333.8,106.499 -167.93,85.59 -299.77,210.8 -362.6,210.8 -62.84,0 -66.74,-111.82 -198.23,-215.56 -71.63,-56.54 -253.83,-112.329 -379.05,-112.329" /></g></g></svg>