<?xml version="1.0" encoding="UTF-8" standalone="no"?>
<svg
   xmlns:dc="http://purl.org/dc/elements/1.1/"
   xmlns:cc="http://creativecommons.org/ns#"
   xmlns:rdf="http://www.w3.org/1999/02/22-rdf-syntax-ns#"
   xmlns:svg="http://www.w3.org/2000/svg"
   xmlns="http://www.w3.org/2000/svg"
   viewBox="0 0 1122.52 642.26666"
   height="642.26666"
   width="1122.52"
   xml:space="preserve"
   id="svg2"
   version="1.1"><metadata
     id="metadata8"><rdf:RDF><cc:Work
         rdf:about=""><dc:format>image/svg+xml</dc:format><dc:type
           rdf:resource="http://purl.org/dc/dcmitype/StillImage" /></cc:Work></rdf:RDF></metadata><defs
     id="defs6" /><g
     transform="matrix(1.3333333,0,0,-1.3333333,0,642.26667)"
     id="g10"><g
       transform="scale(0.1)"
       id="g12"><path
         id="path14"
         style="fill:#eb232c;fill-opacity:1;fill-rule:nonzero;stroke:none"
         d="m 4987.91,3335.1 -948.05,5850.05 c 209.85,33.81 424.2,56.57 637.17,67.63 L 4987.91,3335.1 c -63.96,-3.35 62.56,10.09 0,0 z m 0,0 c -62.46,10.29 63.75,-3.51 0,0 l 327.66,5916.72 c 212.98,-11.69 427.4,-35.1 637.34,-69.6 z m 0,0 -2186.87,5508.72 c 198.75,78.95 404.07,147.75 610.23,204.55 L 4987.91,3335.1 c -60.53,-16.69 58.34,23.18 0,0 z m 0,0 c -58.32,23.34 60.49,-16.86 0,0 l 1593.16,5708.39 c 206.04,-57.42 411.2,-126.91 609.77,-206.49 z m 0,0 -3320.83,4908.59 c 176.64,119.62 361.66,230.84 549.99,330.56 L 4987.91,3335.1 c -55.86,-29.59 52.58,35.59 0,0 z m 0,0 c -52.58,35.83 55.74,-29.74 0,0 l 2786.04,5230.53 c 187.98,-100.29 372.77,-212.12 549.16,-332.41 z m 0,0 -4297.004,4081.05 c 146.567,154.28 303.192,302.28 465.544,439.95 l 3831.46,-4521 c -48.69,-41.3 43.95,46.21 0,0 z m 0,0 c -43.59,46.21 48.54,-41.38 0,0 l 3844.73,4508.82 c 162.07,-138.33 318.34,-286.94 464.43,-441.74 z m 0,0 L -85.9023,6398.36 C 24.3633,6580.69 145.836,6759.04 275.129,6928.41 L 4987.91,3335.1 c -38.59,-50.53 32.91,54.38 0,0 z m 0,0 c -32.62,54.31 38.4,-50.69 0,0 L 9710.9,6913.56 c 128.89,-169.94 249.78,-348.66 359.4,-531.28 z m 0,0 -5615.105,1898.46 c 68.488,202.52 148.925,403.53 239.074,597.47 L 4987.91,3335.1 c -26.48,-57.04 20.14,59.55 0,0 z m 0,0 c -19.96,59.67 26.43,-57.25 0,0 l 5382.79,2479.17 c 89.4,-194.02 169.2,-395.12 237,-597.68 z m 0,0 -5891.586,644.04 c 23.067,212.57 58.035,426 103.946,634.29 L 4987.91,3335.1 c -13.5,-61.32 6.84,62.93 0,0 z m 0,0 c -6.7,63.3 13.36,-61.32 0,0 l 5790.49,1260.84 c 45.1,-208.1 79.5,-421.44 101.9,-634.08 z M -904.918,2702.4 c -22.25,208.77 -33.539,421.58 -33.539,632.57 l 5926.367,0.13 c 0,-67.9 -6.66,62.68 0,0 z M 10879.1,2696.54 4987.91,3335.1 c 6.8,63.33 0,-64.66 0,0 l 5925.29,-0.13 c 0,-212.9 -11.5,-427.71 -34.1,-638.43 z M -631.098,1448.1 c -68.058,202.74 -125.687,411.47 -171.261,620.41 L 4987.91,3335.1 c 13.4,-61.35 -20,59.51 0,0 z M 10603.9,1442.24 4987.91,3335.1 c 20.1,59.64 -13.42,-61.32 0,0 L 10775.8,2062.54 c -45.7,-208.83 -103.6,-417.48 -171.9,-620.3 z M -92.4805,282.539 C -202.652,465.602 -303.91,656.66 -393.414,850.309 L 4987.91,3335.1 c 26.39,-57.08 -32.6,54.15 0,0 z M 10063.6,276.52 4987.91,3335.1 c 32.64,54.06 -26.46,-57.13 0,0 L 10365.4,844.289 C 10275.6,650.5 10174,459.512 10063.6,276.52 Z M 682.102,-736.898 C 535.77,-582.23 396.227,-417.82 267.387,-248.25 L 4987.91,3335.1 c 38.54,-50.69 -43.75,46.21 0,0 z M 9287.5,-742.348 4987.91,3335.1 c 43.67,46.04 -38.53,-50.53 0,0 L 9703.28,-253.68 C 9574.12,-423.301 9434.2,-587.719 9287.5,-742.348 Z M 1656.38,-1566.51 c -176.22,119.91 -347.8,250.78 -509.99,388.93 L 4987.91,3335.1 c 48.38,-41.23 -52.62,35.8 0,0 z m 6655.75,-4.27 -3324.22,4905.88 c 52.27,35.47 -48.44,-41.17 0,0 l 3835.12,-4517.27 c -162.7,-138.22 -334.57,-269.01 -510.9,-388.61 z M 2789.45,-2169.3 c -198.42,79.3 -394.74,170.41 -583.47,270.86 L 4987.91,3335.1 c 55.66,-29.62 -58.4,23.34 0,0 z m 4389.83,-2.4 -2191.37,5506.8 c 58.48,23.27 -55.57,-29.5 0,0 l 2775.08,-5236.63 c -188.75,-100.19 -385.14,-191.09 -583.71,-270.17 z m -3151.29,-341.64 c -211.43,34.49 -423.03,80.99 -628.92,138.22 L 4987.91,3335.1 c 60.14,-16.69 -62.09,10.12 0,0 z m 1912.4,-0.94 -952.48,5849.38 c 61.93,10.04 -60.41,-16.73 0,0 l 1581.45,-5711.94 c -206.14,-57.03 -417.76,-103.28 -628.97,-137.44 z m -953.01,-76.62 c -106.83,0 -215.19,2.93 -322.05,8.67 l 322.58,5917.33 c 64.77,-3.47 -63.75,-3.43 0,0 l 315.96,-5917.62 c -104.77,-5.57 -211.25,-8.38 -316.49,-8.38" /><path
         id="path16"
         style="fill:#eb232c;fill-opacity:1;fill-rule:nonzero;stroke:none"
         d="m 5959.45,3330.93 c 0,-536.85 -435.21,-972.07 -972.07,-972.07 -536.85,0 -972.05,435.22 -972.05,972.07 0,536.87 435.2,972.07 972.05,972.07 536.86,0 972.07,-435.2 972.07,-972.07" /><path
         id="path18"
         style="fill:#ffffff;fill-opacity:1;fill-rule:nonzero;stroke:none"
         d="m 5231.95,3460.16 c -32.26,-129.28 -231.4,-63.6 -296.05,-47.5 l 56.97,228.48 c 64.65,-16.09 272.72,-46.15 239.08,-180.98 z m -35.37,-368.72 c -35.39,-142.09 -274.63,-65.31 -352.22,-45.99 l 62.83,251.89 c 77.58,-19.35 326.29,-57.69 289.43,-205.9 z m 261.51,366.66 c 20.72,138.79 -84.95,213.39 -229.44,263.16 l 46.88,188 -114.48,28.52 -45.62,-183.05 c -30.06,7.5 -60.96,14.57 -91.66,21.58 l 45.96,184.25 -114.36,28.53 -46.91,-187.95 c -24.91,5.68 -49.34,11.29 -73.07,17.18 l 0.12,0.59 -157.81,39.4 -30.45,-122.22 c 0,0 84.92,-19.46 83.12,-20.67 46.35,-11.57 54.77,-42.23 53.32,-66.55 l -53.4,-214.17 c 3.21,-0.82 7.35,-1.99 11.92,-3.81 l -12.07,2.99 -74.87,-300.02 c -5.68,-14.08 -20.04,-35.21 -52.44,-27.18 1.13,-1.66 -83.18,20.76 -83.18,20.76 l -56.82,-131.02 148.97,-37.13 c 27.69,-6.95 54.84,-14.22 81.54,-21.07 l -47.36,-190.16 114.31,-28.53 46.94,188.12 c 31.19,-8.47 61.5,-16.29 91.17,-23.65 l -46.74,-187.26 114.41,-28.52 47.37,189.8 c 195.13,-36.93 341.91,-22.03 403.61,154.42 49.77,142.11 -2.44,224.09 -105.12,277.57 74.77,17.31 131.1,66.5 146.12,168.09 h 0.04" /></g></g></svg>