<?xml version="1.0" encoding="UTF-8" standalone="no"?>
<svg
   xmlns:dc="http://purl.org/dc/elements/1.1/"
   xmlns:cc="http://creativecommons.org/ns#"
   xmlns:rdf="http://www.w3.org/1999/02/22-rdf-syntax-ns#"
   xmlns:svg="http://www.w3.org/2000/svg"
   xmlns="http://www.w3.org/2000/svg"
   viewBox="0 0 2510.6934 304.37332"
   height="304.37332"
   width="2510.6934"
   xml:space="preserve"
   id="svg2"
   version="1.1"><metadata
     id="metadata8"><rdf:RDF><cc:Work
         rdf:about=""><dc:format>image/svg+xml</dc:format><dc:type
           rdf:resource="http://purl.org/dc/dcmitype/StillImage" /></cc:Work></rdf:RDF></metadata><defs
     id="defs6" /><g
     transform="matrix(1.3333333,0,0,-1.3333333,0,304.37333)"
     id="g10"><g
       transform="scale(0.1)"
       id="g12"><path
         id="path14"
         style="fill:#236dbc;fill-opacity:1;fill-rule:nonzero;stroke:none"
         d="M 9311.78,535.801 H -77.8125 V -717.441 H 9311.78 V 535.801" /><path
         id="path16"
         style="fill:#236dbc;fill-opacity:1;fill-rule:nonzero;stroke:none"
         d="m 8936.15,628.961 c -304.66,163.949 -401.85,133.598 -903.92,538.089 -582.69,469.46 -561.21,677.31 -702.68,668.86 -141.48,-8.49 -271.12,-349.2 -531.28,-757.86 C 6542.92,676.969 6358.71,626.852 5874.4,506.801 L 5898.87,96.8984 8957,279.578 8936.15,628.961" /><path
         id="path18"
         style="fill:none;stroke:#ffffff;stroke-width:30;stroke-linecap:round;stroke-linejoin:miter;stroke-miterlimit:10;stroke-dasharray:none;stroke-opacity:1"
         d="m 8936.18,628.531 c -304.68,163.989 -401.86,133.578 -903.94,538.079 -582.66,469.47 -561.2,677.32 -702.68,668.87 -141.49,-8.45 -271.1,-349.2 -531.23,-757.8 C 6542.96,676.539 6358.75,626.41 5874.4,506.371" /><path
         id="path20"
         style="fill:none;stroke:#ffffff;stroke-width:30;stroke-linecap:round;stroke-linejoin:miter;stroke-miterlimit:10;stroke-dasharray:none;stroke-opacity:1"
         d="m 8638.3,659.77 c -207.78,125.3 -497.42,267.492 -730.16,455.6 -270.84,218.83 -453.72,472.05 -549.82,466.32 -96.11,-5.74 -173.57,-277.48 -348.43,-585.061 -171.72,-301.891 -293.6,-317.59 -451.58,-415.168" /><path
         id="path22"
         style="fill:none;stroke:#ffffff;stroke-width:30;stroke-linecap:round;stroke-linejoin:miter;stroke-miterlimit:10;stroke-dasharray:none;stroke-opacity:1"
         d="m 8638.3,659.77 c -126.95,10.691 -448.76,173.812 -669.82,344.45 -257.28,198.54 -464.46,442.85 -555.99,437.42 C 7321,1436.16 7277.76,1238.48 7101.7,968.68 7005.85,821.66 6884.09,697.238 6733.44,608.02" /><path
         id="path24"
         style="fill:none;stroke:#ffffff;stroke-width:30;stroke-linecap:round;stroke-linejoin:miter;stroke-miterlimit:10;stroke-dasharray:none;stroke-opacity:1"
         d="m 8100.59,734.082 c -81.43,6.77 -182.28,77.367 -324.05,185.988 -165.04,126.32 -297.92,281.8 -356.66,278.35 -58.71,-3.52 -84.39,-165.11 -197.43,-336.951 C 7160.89,767.801 7013.61,613.82 6916.91,556.98" /><path
         id="path26"
         style="fill:none;stroke:#ffffff;stroke-width:30;stroke-linecap:round;stroke-linejoin:miter;stroke-miterlimit:10;stroke-dasharray:none;stroke-opacity:1"
         d="m 8289.64,522.48 c -99.28,5.668 -219.23,39.321 -390.87,146.161 -199.65,124.269 -361.93,313.847 -433.61,309.578 -71.7,-4.297 -65.55,-181.887 -205.73,-355.367 -76.37,-94.5 -278.94,-195.403 -421.78,-203.954" /><path
         id="path28"
         style="fill:#236dbc;fill-opacity:1;fill-rule:nonzero;stroke:none"
         d="m 6547.86,476.352 c 268.12,154.98 363.5,145.628 789.3,496.468 494.15,407.22 449.04,552.29 583.66,564.11 134.61,11.8 297.74,-214.13 592.21,-471.89 289.09,-253.028 469.04,-265.431 940.72,-289.77 L 9479.6,480.73 6569.89,225.289 6547.86,476.352" /><path
         id="path30"
         style="fill:none;stroke:#ffffff;stroke-width:30;stroke-linecap:round;stroke-linejoin:miter;stroke-miterlimit:10;stroke-dasharray:none;stroke-opacity:1"
         d="m 6547.89,476.051 c 268.11,154.988 363.52,145.621 789.31,496.469 494.13,407.2 449.04,552.29 583.65,564.09 134.63,11.82 297.76,-214.1 592.22,-471.87 289.06,-253.01 469,-265.451 940.7,-289.779" /><path
         id="path32"
         style="fill:none;stroke:#ffffff;stroke-width:30;stroke-linecap:round;stroke-linejoin:miter;stroke-miterlimit:10;stroke-dasharray:none;stroke-opacity:1"
         d="m 6825.44,535.801 c 181.24,115.25 437.76,252.871 635.1,415.929 229.57,189.7 372.02,392.82 463.47,400.84 91.44,8.01 197.07,-175.45 398.96,-372.07 198.2,-193.031 315.2,-188.84 476.04,-238.309" /><path
         id="path34"
         style="fill:none;stroke:#ffffff;stroke-width:30;stroke-linecap:round;stroke-linejoin:miter;stroke-miterlimit:10;stroke-dasharray:none;stroke-opacity:1"
         d="m 6825.44,535.801 c 118.6,23.558 403,180.109 591.41,329.308 219.2,173.581 385.69,373.371 472.76,381.031 87.07,7.66 151.49,-127.46 349.96,-297.14 108.11,-92.43 237.97,-165.539 390.87,-210.012" /><path
         id="path36"
         style="fill:none;stroke:#ffffff;stroke-width:30;stroke-linecap:round;stroke-linejoin:miter;stroke-miterlimit:10;stroke-dasharray:none;stroke-opacity:1"
         d="m 7324.35,656.398 c 76.1,15.051 162.85,77.954 283.79,173.043 140.77,110.598 247.68,237.929 303.53,242.819 55.86,4.9 99.42,-106.74 226.68,-214.69 69.34,-58.84 226.83,-149.761 324.93,-177.992" /><path
         id="path38"
         style="fill:none;stroke:#ffffff;stroke-width:30;stroke-linecap:round;stroke-linejoin:miter;stroke-miterlimit:10;stroke-dasharray:none;stroke-opacity:1"
         d="m 7171.1,482.102 c 93.06,16.558 202.3,55.578 351.64,153.16 173.72,113.519 304.29,268.758 372.5,274.726 68.19,5.973 83.63,-121.047 236.71,-226.718 83.43,-57.579 286.78,-103.809 422.68,-91.891" /><path
         id="path40"
         style="fill:#236dbc;fill-opacity:1;fill-rule:nonzero;stroke:none"
         d="m 7128.03,393.23 c 296.17,130.961 395.57,113.27 875.56,425.571 557,362.419 523,510.899 665.58,510.899 142.58,0 293.22,-239.34 578.98,-521.88 280.5,-277.332 468.52,-305.461 962.15,-370.941 V 141.23 H 7128.03 v 252" /><path
         id="path42"
         style="fill:none;stroke:#ffffff;stroke-width:30;stroke-linecap:round;stroke-linejoin:miter;stroke-miterlimit:10;stroke-dasharray:none;stroke-opacity:1"
         d="m 7128.03,392.941 c 296.17,130.938 395.57,113.27 875.56,425.547 557,362.432 523,510.912 665.58,510.912 142.58,0 293.22,-239.35 578.98,-521.888 280.5,-277.332 468.52,-305.442 962.15,-370.93" /><path
         id="path44"
         style="fill:none;stroke:#ffffff;stroke-width:30;stroke-linecap:round;stroke-linejoin:miter;stroke-miterlimit:10;stroke-dasharray:none;stroke-opacity:1"
         d="m 7425.35,428.172 c 201.15,99 483.48,213.629 705.95,358.789 258.86,168.91 427.34,358.779 524.2,358.779 96.84,0 190.95,-191.978 385.05,-405.541 190.53,-209.629 313.88,-215.66 478.42,-279.027" /><path
         id="path46"
         style="fill:none;stroke:#ffffff;stroke-width:30;stroke-linecap:round;stroke-linejoin:miter;stroke-miterlimit:10;stroke-dasharray:none;stroke-opacity:1"
         d="m 7425.35,428.172 c 126.81,13.129 440.2,144.199 652.04,276.348 246.44,153.73 439.87,338.22 532.14,338.22 92.16,0 147.47,-140.22 340.42,-326.58 105.13,-101.558 234.89,-185.75 391.54,-243.43" /><path
         id="path48"
         style="fill:none;stroke:#ffffff;stroke-width:30;stroke-linecap:round;stroke-linejoin:miter;stroke-miterlimit:10;stroke-dasharray:none;stroke-opacity:1"
         d="m 7960.89,504.672 c 81.39,8.34 178.39,63.449 314.31,147.59 158.14,97.859 282.28,215.347 341.48,215.347 59.14,0 94.63,-115.019 218.45,-233.699 67.45,-64.648 224.61,-169.012 325.14,-205.738" /><path
         id="path50"
         style="fill:none;stroke:#ffffff;stroke-width:30;stroke-linecap:round;stroke-linejoin:miter;stroke-miterlimit:10;stroke-dasharray:none;stroke-opacity:1"
         d="m 7783.7,344.449 c 99.38,8.371 217.85,37.711 383.8,121.832 193.1,97.899 344.67,241.129 416.93,241.129 72.21,0 76.73,-127.922 227.91,-246.582 82.35,-64.656 291.86,-128.469 435.81,-128.469" /><path
         id="path52"
         style="fill:#236dbc;fill-opacity:1;fill-rule:nonzero;stroke:none"
         d="M 1808.1,717.41 C 1503.43,881.371 1406.25,851.012 904.18,1255.49 321.516,1724.96 342.969,1932.81 201.477,1924.38 60,1915.89 -69.6172,1575.15 -329.758,1166.53 -585.129,765.422 -769.324,715.309 -1253.63,595.281 l 24.46,-409.902 3058.14,182.641 -20.87,349.39" /><path
         id="path54"
         style="fill:none;stroke:#ffffff;stroke-width:30;stroke-linecap:round;stroke-linejoin:miter;stroke-miterlimit:10;stroke-dasharray:none;stroke-opacity:1"
         d="M 1808.12,717 C 1503.45,880.961 1406.27,850.582 904.199,1255.09 321.516,1724.52 342.996,1932.41 201.52,1923.93 60.0391,1915.5 -69.6172,1574.74 -329.758,1166.1 -585.078,765 -769.277,714.879 -1253.63,594.852" /><path
         id="path56"
         style="fill:none;stroke:#ffffff;stroke-width:30;stroke-linecap:round;stroke-linejoin:miter;stroke-miterlimit:10;stroke-dasharray:none;stroke-opacity:1"
         d="M 1510.24,748.219 C 1302.46,873.52 1012.83,1015.74 780.09,1203.84 509.27,1422.61 326.391,1675.89 230.289,1670.15 134.184,1664.41 56.7188,1392.66 -118.184,1085.09 -289.859,783.199 -411.754,767.461 -569.75,669.941" /><path
         id="path58"
         style="fill:none;stroke:#ffffff;stroke-width:30;stroke-linecap:round;stroke-linejoin:miter;stroke-miterlimit:10;stroke-dasharray:none;stroke-opacity:1"
         d="M 1510.24,748.219 C 1383.31,758.891 1061.51,922.059 840.41,1092.69 583.164,1291.24 375.945,1535.54 284.438,1530.09 192.934,1524.61 149.719,1326.94 -26.3125,1057.13 -122.203,910.102 -243.961,785.711 -394.605,696.469" /><path
         id="path60"
         style="fill:none;stroke:#ffffff;stroke-width:30;stroke-linecap:round;stroke-linejoin:miter;stroke-miterlimit:10;stroke-dasharray:none;stroke-opacity:1"
         d="M 972.543,822.551 C 891.09,829.309 790.289,899.93 648.461,1008.48 483.434,1134.84 350.543,1290.32 291.84,1286.85 233.137,1283.34 207.465,1121.76 94.4141,949.922 32.8438,856.281 -114.434,702.289 -211.137,645.422" /><path
         id="path62"
         style="fill:none;stroke:#ffffff;stroke-width:30;stroke-linecap:round;stroke-linejoin:miter;stroke-miterlimit:10;stroke-dasharray:none;stroke-opacity:1"
         d="M 1161.6,610.922 C 1062.33,616.629 942.371,650.27 770.727,757.09 571.039,881.34 408.816,1070.94 337.105,1066.66 265.438,1062.37 271.563,884.781 131.383,711.301 55.0391,616.789 -147.559,515.91 -290.398,507.359" /><path
         id="path64"
         style="fill:#236dbc;fill-opacity:1;fill-rule:nonzero;stroke:none"
         d="m -265.078,972.352 c 304.6718,163.938 401.855,133.568 903.922,538.078 582.686,469.46 561.206,677.33 702.686,668.87 141.48,-8.5 271.12,-349.23 531.27,-757.86 255.35,-401.11 439.57,-451.221 923.87,-571.249 l -24.46,-409.902 -3058.14,182.68 20.852,349.383" /><path
         id="path66"
         style="fill:none;stroke:#ffffff;stroke-width:30;stroke-linecap:round;stroke-linejoin:miter;stroke-miterlimit:10;stroke-dasharray:none;stroke-opacity:1"
         d="M -265.098,971.898 C 39.5742,1135.9 136.754,1105.5 638.824,1510 c 582.656,469.46 561.206,677.33 702.686,668.84 141.5,-8.42 271.11,-349.18 531.25,-757.8 255.35,-401.12 439.57,-451.251 923.91,-571.278" /><path
         id="path68"
         style="fill:none;stroke:#ffffff;stroke-width:30;stroke-linecap:round;stroke-linejoin:miter;stroke-miterlimit:10;stroke-dasharray:none;stroke-opacity:1"
         d="m 32.7773,1003.15 c 207.7927,125.3 497.4137,267.5 730.1607,455.61 270.832,218.79 453.722,472.05 549.822,466.31 96.1,-5.73 173.57,-277.5 348.43,-585.05 171.71,-301.89 293.59,-317.62 451.61,-415.168" /><path
         id="path70"
         style="fill:none;stroke:#ffffff;stroke-width:30;stroke-linecap:round;stroke-linejoin:miter;stroke-miterlimit:10;stroke-dasharray:none;stroke-opacity:1"
         d="m 32.7773,1003.15 c 126.9457,10.68 448.7617,173.82 669.8167,344.46 257.293,198.54 464.486,442.85 555.986,437.41 91.49,-5.47 134.73,-203.16 310.76,-472.98 95.91,-147.02 217.62,-271.41 368.29,-360.661" /><path
         id="path72"
         style="fill:none;stroke:#ffffff;stroke-width:30;stroke-linecap:round;stroke-linejoin:miter;stroke-miterlimit:10;stroke-dasharray:none;stroke-opacity:1"
         d="m 570.484,1077.46 c 81.43,6.77 182.274,77.38 324.082,185.96 165.004,126.35 297.894,281.84 356.624,278.35 58.72,-3.49 84.39,-165.09 197.42,-336.94 61.58,-93.64 208.85,-247.631 305.57,-304.471" /><path
         id="path74"
         style="fill:none;stroke:#ffffff;stroke-width:30;stroke-linecap:round;stroke-linejoin:miter;stroke-miterlimit:10;stroke-dasharray:none;stroke-opacity:1"
         d="m 381.426,865.859 c 99.293,5.68 219.25,39.321 390.875,146.171 199.687,124.25 361.929,313.84 433.619,309.54 71.68,-4.29 65.54,-181.87 205.72,-355.351 76.37,-94.5 278.94,-195.399 421.78,-203.93" /><path
         id="path76"
         style="fill:#236dbc;fill-opacity:1;fill-rule:nonzero;stroke:none"
         d="m -580.188,564.77 c 268.118,155 363.532,145.652 789.293,496.52 494.161,407.16 449.063,552.27 583.684,564.09 C 927.383,1637.2 1090.51,1411.24 1385,1153.5 1674.04,900.461 1854,888.039 2325.7,863.719 L 2351.56,569.18 -558.145,313.738 -580.188,564.77" /><path
         id="path78"
         style="fill:none;stroke:#ffffff;stroke-width:30;stroke-linecap:round;stroke-linejoin:miter;stroke-miterlimit:10;stroke-dasharray:none;stroke-opacity:1"
         d="m -580.164,564.48 c 268.133,155 363.527,145.629 789.312,496.49 494.145,407.2 449.04,552.29 583.641,564.12 134.621,11.81 297.741,-214.14 592.241,-471.89 289.06,-253.04 468.98,-265.462 940.69,-289.79" /><path
         id="path80"
         style="fill:none;stroke:#ffffff;stroke-width:30;stroke-linecap:round;stroke-linejoin:miter;stroke-miterlimit:10;stroke-dasharray:none;stroke-opacity:1"
         d="m -302.578,624.262 c 181.246,115.25 437.734,252.847 635.066,415.908 229.578,189.71 372.055,392.83 463.492,400.85 91.399,8.04 197.032,-175.46 398.94,-372.08 198.2,-193.03 315.17,-188.85 476.06,-238.311" /><path
         id="path82"
         style="fill:none;stroke:#ffffff;stroke-width:30;stroke-linecap:round;stroke-linejoin:miter;stroke-miterlimit:10;stroke-dasharray:none;stroke-opacity:1"
         d="m -302.578,624.262 c 118.574,23.547 402.969,180.09 591.351,329.269 219.247,173.599 385.7,373.409 472.79,381.049 87.042,7.66 151.48,-127.46 349.937,-297.13 108.14,-92.399 237.96,-165.52 390.91,-210.009" /><path
         id="path84"
         style="fill:none;stroke:#ffffff;stroke-width:30;stroke-linecap:round;stroke-linejoin:miter;stroke-miterlimit:10;stroke-dasharray:none;stroke-opacity:1"
         d="m 196.301,744.852 c 76.082,15.019 162.863,77.949 283.812,173.039 140.746,110.609 247.653,237.929 303.535,242.819 55.856,4.91 99.375,-106.74 226.662,-214.679 69.33,-58.832 226.82,-149.75 324.92,-178.011" /><path
         id="path86"
         style="fill:none;stroke:#ffffff;stroke-width:30;stroke-linecap:round;stroke-linejoin:miter;stroke-miterlimit:10;stroke-dasharray:none;stroke-opacity:1"
         d="m 43.043,570.551 c 93.086,16.558 202.344,55.609 351.648,153.168 173.723,113.531 304.286,268.73 372.5,274.711 68.192,6.01 83.614,-121.039 236.739,-226.692 83.39,-57.59 286.74,-103.828 422.66,-91.879" /><path
         id="path88"
         style="fill:#236dbc;fill-opacity:1;fill-rule:nonzero;stroke:none"
         d="m 4229.86,807.27 c -243.35,108.16 -325.05,93.57 -719.4,351.49 -457.67,299.34 -429.71,421.98 -546.86,421.98 -117.19,0 -240.94,-197.69 -475.74,-431.03 C 2257.38,920.621 2102.92,897.43 1697.34,843.34 V 599.129 H 4229.86 V 807.27" /><path
         id="path90"
         style="fill:none;stroke:#ffffff;stroke-width:30;stroke-linecap:round;stroke-linejoin:miter;stroke-miterlimit:10;stroke-dasharray:none;stroke-opacity:1"
         d="m 4229.86,807.012 c -243.35,108.179 -325.05,93.578 -719.4,351.498 -457.67,299.35 -429.71,421.97 -546.86,421.97 -117.19,0 -240.94,-197.67 -475.74,-431.03 C 2257.38,920.379 2102.92,897.172 1697.34,843.07" /><path
         id="path92"
         style="fill:none;stroke:#ffffff;stroke-width:30;stroke-linecap:round;stroke-linejoin:miter;stroke-miterlimit:10;stroke-dasharray:none;stroke-opacity:1"
         d="m 3985.59,836.148 c -165.28,81.743 -397.27,176.442 -580.07,296.332 -212.71,139.51 -351.13,296.32 -430.71,296.32 -79.58,0 -156.89,-158.58 -316.38,-334.96 -156.55,-173.129 -257.9,-178.141 -393.09,-230.442" /><path
         id="path94"
         style="fill:none;stroke:#ffffff;stroke-width:30;stroke-linecap:round;stroke-linejoin:miter;stroke-miterlimit:10;stroke-dasharray:none;stroke-opacity:1"
         d="m 3985.59,836.148 c -104.23,10.801 -361.75,119.09 -535.75,228.222 -202.51,126.98 -361.46,279.36 -437.24,279.36 -75.77,0 -121.18,-115.83 -279.72,-269.75 -86.4,-83.871 -192.98,-153.398 -321.71,-201.011" /><path
         id="path96"
         style="fill:none;stroke:#ffffff;stroke-width:30;stroke-linecap:round;stroke-linejoin:miter;stroke-miterlimit:10;stroke-dasharray:none;stroke-opacity:1"
         d="m 3545.55,899.32 c -66.89,6.91 -146.61,52.41 -258.28,121.9 -129.92,80.83 -231.92,177.86 -280.54,177.86 -48.63,0 -77.77,-95.01 -179.52,-193 -55.43,-53.408 -184.54,-139.6 -267.17,-169.932" /><path
         id="path98"
         style="fill:none;stroke:#ffffff;stroke-width:30;stroke-linecap:round;stroke-linejoin:miter;stroke-miterlimit:10;stroke-dasharray:none;stroke-opacity:1"
         d="m 3691.13,766.98 c -81.65,6.911 -178.99,31.149 -315.35,100.629 -158.65,80.86 -283.18,199.151 -342.57,199.151 -59.35,0 -63.04,-105.619 -187.26,-203.651 -67.68,-53.418 -239.8,-106.097 -358.09,-106.097" /><path
         id="path100"
         style="fill:#236dbc;fill-opacity:1;fill-rule:nonzero;stroke:none"
         d="m 2772.17,663.211 c 243.32,108.129 325.01,93.551 719.38,351.469 457.66,299.35 429.71,422 546.88,422 117.16,0 240.94,-197.7 475.73,-431.06 230.47,-229.061 384.96,-252.28 790.54,-306.358 V 455.051 H 2772.17 v 208.16" /><path
         id="path102"
         style="fill:none;stroke:#ffffff;stroke-width:30;stroke-linecap:round;stroke-linejoin:miter;stroke-miterlimit:10;stroke-dasharray:none;stroke-opacity:1"
         d="m 2772.17,662.949 c 243.32,108.16 325.01,93.563 719.38,351.501 457.66,299.34 429.71,421.96 546.88,421.96 117.16,0 240.94,-197.66 475.73,-431.05 230.47,-229.051 384.96,-252.258 790.54,-306.348" /><path
         id="path104"
         style="fill:none;stroke:#ffffff;stroke-width:30;stroke-linecap:round;stroke-linejoin:miter;stroke-miterlimit:10;stroke-dasharray:none;stroke-opacity:1"
         d="m 3016.43,692.059 c 165.29,81.75 397.26,176.461 580.07,296.332 212.68,139.519 351.09,296.319 430.7,296.319 79.58,0 156.9,-158.55 316.38,-334.929 156.55,-173.133 257.89,-178.14 393.09,-230.449" /><path
         id="path106"
         style="fill:none;stroke:#ffffff;stroke-width:30;stroke-linecap:round;stroke-linejoin:miter;stroke-miterlimit:10;stroke-dasharray:none;stroke-opacity:1"
         d="m 3016.43,692.059 c 104.21,10.832 361.72,119.089 535.76,228.222 202.51,126.979 361.44,279.389 437.2,279.389 75.79,0 121.21,-115.83 279.77,-269.76 86.34,-83.859 192.97,-153.41 321.68,-201.039" /><path
         id="path108"
         style="fill:none;stroke:#ffffff;stroke-width:30;stroke-linecap:round;stroke-linejoin:miter;stroke-miterlimit:10;stroke-dasharray:none;stroke-opacity:1"
         d="m 3456.48,755.25 c 66.85,6.891 146.57,52.379 258.24,121.879 129.96,80.859 231.95,177.861 280.59,177.861 48.6,0 77.76,-94.978 179.49,-193.002 55.43,-53.429 184.55,-139.597 267.15,-169.929" /><path
         id="path110"
         style="fill:none;stroke:#ffffff;stroke-width:30;stroke-linecap:round;stroke-linejoin:miter;stroke-miterlimit:10;stroke-dasharray:none;stroke-opacity:1"
         d="m 3310.91,622.922 c 81.65,6.91 178.96,31.117 315.33,100.629 158.66,80.828 283.18,199.129 342.56,199.129 59.34,0 63.03,-105.66 187.26,-203.66 67.68,-53.391 239.81,-106.098 358.1,-106.098" /><path
         id="path112"
         style="fill:#236dbc;fill-opacity:1;fill-rule:nonzero;stroke:none"
         d="m 0,481.711 c 296.148,130.891 395.57,113.258 875.52,425.539 557.02,362.42 522.99,510.9 665.58,510.9 142.6,0 293.25,-239.37 579.01,-521.888 280.52,-277.332 468.51,-305.434 962.11,-370.903 V 229.672 H 0 v 252.039" /><path
         id="path114"
         style="fill:none;stroke:#ffffff;stroke-width:30;stroke-linecap:round;stroke-linejoin:miter;stroke-miterlimit:10;stroke-dasharray:none;stroke-opacity:1"
         d="m 0,481.398 c 296.148,130.934 395.57,113.274 875.52,425.551 557.02,362.411 522.99,510.891 665.58,510.891 142.6,0 293.25,-239.36 579.01,-521.891 280.52,-277.32 468.51,-305.429 962.11,-370.89" /><path
         id="path116"
         style="fill:none;stroke:#ffffff;stroke-width:30;stroke-linecap:round;stroke-linejoin:miter;stroke-miterlimit:10;stroke-dasharray:none;stroke-opacity:1"
         d="m 297.273,516.648 c 201.168,98.961 483.524,213.633 705.987,358.782 258.86,168.89 427.34,358.79 524.17,358.79 96.88,0 190.97,-192.01 385.08,-405.56 190.54,-209.621 313.88,-215.672 478.41,-279.019" /><path
         id="path118"
         style="fill:none;stroke:#ffffff;stroke-width:30;stroke-linecap:round;stroke-linejoin:miter;stroke-miterlimit:10;stroke-dasharray:none;stroke-opacity:1"
         d="m 297.273,516.648 c 126.852,13.102 440.262,144.192 652.047,276.313 246.46,153.738 439.91,338.239 532.14,338.239 92.22,0 147.49,-140.231 340.44,-326.591 105.12,-101.539 234.89,-185.75 391.52,-243.41" /><path
         id="path120"
         style="fill:none;stroke:#ffffff;stroke-width:30;stroke-linecap:round;stroke-linejoin:miter;stroke-miterlimit:10;stroke-dasharray:none;stroke-opacity:1"
         d="m 832.836,593.109 c 81.394,8.379 178.414,63.461 314.334,147.61 158.13,97.863 282.27,215.34 341.44,215.34 59.18,0 94.66,-115.028 218.47,-233.668 67.47,-64.692 224.62,-169.039 325.14,-205.743" /><path
         id="path122"
         style="fill:none;stroke:#ffffff;stroke-width:30;stroke-linecap:round;stroke-linejoin:miter;stroke-miterlimit:10;stroke-dasharray:none;stroke-opacity:1"
         d="m 655.668,432.93 c 99.375,8.34 217.816,37.679 383.752,121.789 193.11,97.922 344.68,241.133 416.93,241.133 72.25,0 76.74,-127.903 227.92,-246.563 82.38,-64.648 291.88,-128.48 435.84,-128.48" /><path
         id="path124"
         style="fill:#236dbc;fill-opacity:1;fill-rule:nonzero;stroke:none"
         d="m 6994.3,469.879 c -273.93,121.73 -365.9,105.281 -809.81,395.66 -515.21,336.961 -483.74,475.031 -615.65,475.031 -131.85,0 -271.17,-222.57 -535.5,-485.25 C 4773.9,597.48 4599.99,571.34 4143.42,510.449 V 235.59 H 6994.3 v 234.289" /><path
         id="path126"
         style="fill:none;stroke:#ffffff;stroke-width:30;stroke-linecap:round;stroke-linejoin:miter;stroke-miterlimit:10;stroke-dasharray:none;stroke-opacity:1"
         d="m 6994.3,469.59 c -273.93,121.75 -365.9,105.332 -809.81,395.648 -515.21,337.002 -483.74,475.022 -615.65,475.022 -131.85,0 -271.17,-222.51 -535.5,-485.19 C 4773.9,597.191 4599.99,571.051 4143.42,510.172" /><path
         id="path128"
         style="fill:none;stroke:#ffffff;stroke-width:30;stroke-linecap:round;stroke-linejoin:miter;stroke-miterlimit:10;stroke-dasharray:none;stroke-opacity:1"
         d="m 6719.34,502.359 c -186.05,92.032 -447.21,198.641 -653,333.602 -239.41,157.051 -395.25,333.569 -484.83,333.569 -89.57,0 -176.61,-178.518 -356.17,-377.05 -176.22,-194.921 -290.3,-200.519 -442.51,-259.449" /><path
         id="path130"
         style="fill:none;stroke:#ffffff;stroke-width:30;stroke-linecap:round;stroke-linejoin:miter;stroke-miterlimit:10;stroke-dasharray:none;stroke-opacity:1"
         d="m 6719.34,502.359 c -117.32,12.192 -407.22,134.051 -603.12,256.922 -227.97,142.949 -406.9,314.469 -492.19,314.469 -85.28,0 -136.41,-130.34 -314.89,-303.66 -97.22,-94.399 -217.22,-172.66 -362.15,-226.27" /><path
         id="path132"
         style="fill:none;stroke:#ffffff;stroke-width:30;stroke-linecap:round;stroke-linejoin:miter;stroke-miterlimit:10;stroke-dasharray:none;stroke-opacity:1"
         d="m 6223.97,573.48 c -75.28,7.782 -165.01,58.981 -290.74,137.219 -146.26,91.02 -261.09,200.223 -315.81,200.223 -54.75,0 -87.51,-106.942 -202.09,-217.262 C 5352.94,633.539 5207.6,536.5 5114.61,502.359" /><path
         id="path134"
         style="fill:none;stroke:#ffffff;stroke-width:30;stroke-linecap:round;stroke-linejoin:miter;stroke-miterlimit:10;stroke-dasharray:none;stroke-opacity:1"
         d="m 6387.87,424.531 c -91.93,7.77 -201.48,35.047 -354.99,113.25 -178.61,91.039 -318.8,224.199 -385.63,224.199 -66.83,0 -70.97,-118.941 -210.8,-229.261 -76.19,-60.117 -269.95,-119.438 -403.11,-119.438" /><g
         transform="scale(1.1349)"
         id="g136"><path
           id="path138"
           style="fill:#236dbc;fill-opacity:1;fill-rule:nonzero;stroke:none"
           d="M 16300,300.053 H 8026.51 V -804.22 H 16300 V 300.053" /></g><g
         transform="scale(1.11314)"
         id="g140"><path
           id="path142"
           style="fill:#236dbc;fill-opacity:1;fill-rule:nonzero;stroke:none"
           d="m 16281.3,389.62 c -273.7,147.279 -361,119.994 -812,483.393 -523.5,421.747 -504.3,608.477 -631.3,600.887 -127.1,-7.63 -243.5,-313.72 -477.3,-680.834 -229.4,-360.314 -394.9,-405.348 -830,-513.191 l 22,-368.2305 2747.3,164.0953 -18.7,313.8802" /></g><g
         transform="scale(1.11186)"
         id="g144"><path
           id="path146"
           style="fill:none;stroke:#ffffff;stroke-width:26.98180008;stroke-linecap:round;stroke-linejoin:miter;stroke-miterlimit:10;stroke-dasharray:none;stroke-opacity:1"
           d="m 16300,389.673 c -274,147.49 -361.5,120.14 -813,483.955 -524,422.232 -504.7,609.172 -632,601.582 -127.2,-7.6 -243.8,-314.08 -477.8,-681.575 -229.6,-360.773 -395.3,-405.862 -831,-513.825" /></g><g
         transform="scale(1.09358)"
         id="g148"><path
           id="path150"
           style="fill:none;stroke:#ffffff;stroke-width:27.43280029;stroke-linecap:round;stroke-linejoin:miter;stroke-miterlimit:10;stroke-dasharray:none;stroke-opacity:1"
           d="m 16300,424.768 c -190,114.561 -454.8,244.591 -667.7,416.596 -247.6,200.106 -414.9,431.656 -502.8,426.416 -87.8,-5.24 -158.6,-253.73 -318.6,-534.997 -157,-276.045 -268.4,-290.401 -412.9,-379.633" /></g><g
         transform="scale(1.09358)"
         id="g152"><path
           id="path154"
           style="fill:none;stroke:#ffffff;stroke-width:27.43280029;stroke-linecap:round;stroke-linejoin:miter;stroke-miterlimit:10;stroke-dasharray:none;stroke-opacity:1"
           d="m 16300,424.768 c -116,9.759 -410.4,158.928 -612.5,314.956 -235.3,181.56 -424.7,404.956 -508.4,399.986 -83.7,-5 -123.2,-185.764 -284.2,-432.473 -87.6,-134.45 -199,-248.213 -336.7,-329.797" /></g><g
         transform="scale(1.0606)"
         id="g156"><path
           id="path158"
           style="fill:none;stroke:#ffffff;stroke-width:28.2859993;stroke-linecap:round;stroke-linejoin:miter;stroke-miterlimit:10;stroke-dasharray:none;stroke-opacity:1"
           d="m 16300,508.036 c -76.7,6.375 -171.9,72.958 -305.5,175.355 -155.7,119.121 -281,265.708 -336.3,262.445 -55.4,-3.308 -79.6,-155.677 -186.1,-317.688 -58.1,-88.309 -197,-233.51 -288.2,-287.095" /></g><g
         transform="scale(1.0722)"
         id="g160"><path
           id="path162"
           style="fill:none;stroke:#ffffff;stroke-width:27.97990036;stroke-linecap:round;stroke-linejoin:miter;stroke-miterlimit:10;stroke-dasharray:none;stroke-opacity:1"
           d="m 16300,305.185 c -92.6,5.29 -204.5,36.673 -364.6,136.33 -186.2,115.883 -337.5,292.696 -404.4,288.725 -66.9,-4.011 -61.2,-169.654 -191.8,-331.442 -71.3,-88.144 -260.2,-182.259 -393.4,-190.216" /></g><g
         transform="scale(1.15521)"
         id="g164"><path
           id="path166"
           style="fill:#236dbc;fill-opacity:1;fill-rule:nonzero;stroke:none"
           d="m 13620.8,243.323 c 232.1,134.147 314.7,126.062 683.3,429.773 427.7,352.494 388.7,478.084 505.2,488.304 116.6,10.21 257.8,-185.357 512.7,-408.493 250.2,-219.024 855.5,-391.719 1263.8,-412.761 l -427.2,-93.033 -2518.7,-221.1167 -19.1,217.3267" /></g><g
         transform="scale(1.17547)"
         id="g168"><path
           id="path170"
           style="fill:none;stroke:#ffffff;stroke-width:25.52169991;stroke-linecap:round;stroke-linejoin:miter;stroke-miterlimit:10;stroke-dasharray:none;stroke-opacity:1"
           d="m 13386.1,238.873 c 228.1,131.839 309.2,123.873 671.5,422.351 420.4,346.426 382,469.846 496.5,479.886 114.6,10.05 253.3,-182.144 503.8,-401.434 246,-215.239 840.7,-384.696 1242.1,-405.392" /></g><g
         transform="scale(1.10344)"
         id="g172"><path
           id="path174"
           style="fill:none;stroke:#ffffff;stroke-width:27.18770027;stroke-linecap:round;stroke-linejoin:miter;stroke-miterlimit:10;stroke-dasharray:none;stroke-opacity:1"
           d="m 14511.5,308.608 c 164.2,104.453 396.7,229.173 575.6,376.939 208,171.926 337.1,355.993 419.9,363.263 82.9,7.27 178.6,-158.995 361.6,-337.191 179.6,-174.935 285.7,-171.137 431.4,-215.979" /></g><g
         transform="scale(1.0931)"
         id="g176"><path
           id="path178"
           style="fill:none;stroke:#ffffff;stroke-width:27.44479942;stroke-linecap:round;stroke-linejoin:miter;stroke-miterlimit:10;stroke-dasharray:none;stroke-opacity:1"
           d="m 14648.7,311.527 c 108.5,21.57 368.7,164.776 541.1,301.27 200.5,158.787 352.8,341.566 432.4,348.574 79.7,7.001 138.6,-116.612 320.2,-271.832 98.9,-84.557 217.7,-151.439 357.6,-192.12" /></g><g
         transform="scale(1.08285)"
         id="g180"><path
           id="path182"
           style="fill:none;stroke:#ffffff;stroke-width:27.70479965;stroke-linecap:round;stroke-linejoin:miter;stroke-miterlimit:10;stroke-dasharray:none;stroke-opacity:1"
           d="m 15248.2,425.842 c 70.3,13.917 150.4,72.003 262.1,159.818 130,102.128 228.7,219.726 280.3,224.242 51.6,4.517 91.8,-98.572 209.4,-198.266 64,-54.345 209.4,-138.3 300,-164.37" /></g><g
         transform="scale(1.08845)"
         id="g184"><path
           id="path186"
           style="fill:none;stroke:#ffffff;stroke-width:27.56200027;stroke-linecap:round;stroke-linejoin:miter;stroke-miterlimit:10;stroke-dasharray:none;stroke-opacity:1"
           d="m 15028.8,263.522 c 85.6,15.221 185.9,51.073 323.2,140.721 159.5,104.287 279.4,246.921 342.1,252.404 62.7,5.495 76.9,-111.213 217.6,-208.294 76.6,-52.902 263.4,-95.376 388.3,-84.423" /></g><g
         transform="scale(1.15521)"
         id="g188"><path
           id="path190"
           style="fill:#236dbc;fill-opacity:1;fill-rule:nonzero;stroke:none"
           d="m 14123,171.37 c 256.4,113.365 342.4,98.05 758,368.384 482.1,313.723 452.7,442.264 576.1,442.264 123.5,0 253.8,-207.192 501.2,-451.763 242.8,-240.076 405.6,-264.416 832.9,-321.091 V -46.7784 H 14123 V 171.37" /></g><g
         transform="scale(1.19002)"
         id="g192"><path
           id="path194"
           style="fill:none;stroke:#ffffff;stroke-width:25.20960045;stroke-linecap:round;stroke-linejoin:miter;stroke-miterlimit:10;stroke-dasharray:none;stroke-opacity:1"
           d="m 13709.9,166.098 c 248.9,110.048 332.4,95.192 735.8,357.614 468,304.547 439.5,429.328 559.3,429.328 119.8,0 246.4,-201.132 486.5,-438.565 235.7,-233.034 393.7,-256.665 808.5,-311.689" /></g><g
         transform="scale(1.14761)"
         id="g196"><path
           id="path198"
           style="fill:none;stroke:#ffffff;stroke-width:26.14119911;stroke-linecap:round;stroke-linejoin:miter;stroke-miterlimit:10;stroke-dasharray:none;stroke-opacity:1"
           d="m 14475.7,202.952 c 175.2,86.255 421.2,186.16 615.1,312.639 225.6,147.177 372.3,312.632 456.8,312.632 84.3,0 166.4,-167.296 335.5,-353.376 166,-182.668 273.6,-187.93 416.9,-243.14" /></g><g
         transform="scale(1.13672)"
         id="g200"><path
           id="path202"
           style="fill:none;stroke:#ffffff;stroke-width:26.39159966;stroke-linecap:round;stroke-linejoin:miter;stroke-miterlimit:10;stroke-dasharray:none;stroke-opacity:1"
           d="m 14614.4,204.896 c 111.5,11.543 387.2,126.865 573.5,243.112 216.9,135.237 387,297.538 468.1,297.538 81.2,0 129.8,-123.363 299.6,-287.301 92.4,-89.35 206.5,-163.415 344.4,-214.15" /></g><g
         transform="scale(1.12561)"
         id="g204"><path
           id="path206"
           style="fill:none;stroke:#ffffff;stroke-width:26.65229988;stroke-linecap:round;stroke-linejoin:miter;stroke-miterlimit:10;stroke-dasharray:none;stroke-opacity:1"
           d="m 15234.4,274.872 c 72.4,7.42 158.5,56.38 279.3,131.114 140.5,86.956 250.8,191.337 303.4,191.337 52.5,0 84,-102.205 194.1,-207.624 59.9,-57.434 199.5,-150.148 288.8,-182.779" /></g><g
         transform="scale(1.131)"
         id="g208"><path
           id="path210"
           style="fill:none;stroke:#ffffff;stroke-width:26.52519989;stroke-linecap:round;stroke-linejoin:miter;stroke-miterlimit:10;stroke-dasharray:none;stroke-opacity:1"
           d="m 15005.1,131.911 c 87.9,7.398 192.7,33.333 339.4,107.71 170.7,86.559 304.7,213.19 368.6,213.19 63.9,0 67.9,-113.085 201.6,-218.001 72.7,-57.171 258,-113.599 385.3,-113.599" /></g><path
         id="path212"
         style="fill:#236dbc;fill-opacity:1;fill-rule:nonzero;stroke:none"
         d="m 8606.94,369.512 c 268.11,155 363.52,145.648 789.3,496.508 494.14,407.17 449.04,552.28 583.67,564.09 134.59,11.83 297.69,-214.14 592.19,-471.86 289.1,-253.059 469,-265.48 940.7,-289.801 l 25.9,-294.539 -2909.72,-255.441 -22.04,251.043" /><path
         id="path214"
         style="fill:none;stroke:#ffffff;stroke-width:30;stroke-linecap:round;stroke-linejoin:miter;stroke-miterlimit:10;stroke-dasharray:none;stroke-opacity:1"
         d="m 8606.96,369.219 c 268.14,154.992 363.51,145.633 789.31,496.492 494.14,407.199 449.04,552.289 583.64,564.099 134.59,11.83 297.79,-214.12 592.19,-471.869 289.1,-253.043 469,-265.461 940.7,-289.8" /><path
         id="path216"
         style="fill:none;stroke:#ffffff;stroke-width:30;stroke-linecap:round;stroke-linejoin:miter;stroke-miterlimit:10;stroke-dasharray:none;stroke-opacity:1"
         d="m 8884.54,428.988 c 181.25,115.262 437.74,252.852 635.07,415.922 229.58,189.71 372.06,392.83 463.5,400.85 91.39,8.04 196.99,-175.46 398.89,-372.08 198.2,-193.039 315.2,-188.86 476.1,-238.321" /><path
         id="path218"
         style="fill:none;stroke:#ffffff;stroke-width:30;stroke-linecap:round;stroke-linejoin:miter;stroke-miterlimit:10;stroke-dasharray:none;stroke-opacity:1"
         d="m 8884.54,428.988 c 118.57,23.563 402.97,180.102 591.35,329.282 219.25,173.589 385.71,373.41 472.79,381.05 87.02,7.66 151.52,-127.47 349.92,-297.14 108.2,-92.399 238,-165.508 390.9,-210.008" /><path
         id="path220"
         style="fill:none;stroke:#ffffff;stroke-width:30;stroke-linecap:round;stroke-linejoin:miter;stroke-miterlimit:10;stroke-dasharray:none;stroke-opacity:1"
         d="m 9383.42,549.57 c 76.09,15.039 162.86,77.969 283.82,173.051 140.74,110.617 247.65,237.93 303.53,242.828 55.83,4.922 99.43,-106.738 226.63,-214.679 69.4,-58.829 226.8,-149.77 324.9,-178.008" /><path
         id="path222"
         style="fill:none;stroke:#ffffff;stroke-width:30;stroke-linecap:round;stroke-linejoin:miter;stroke-miterlimit:10;stroke-dasharray:none;stroke-opacity:1"
         d="m 9230.17,375.289 c 93.08,16.543 202.33,55.609 351.64,153.16 173.72,113.539 304.28,268.731 372.5,274.723 68.19,6 83.59,-121.043 236.69,-226.711 83.4,-57.582 286.8,-103.82 422.7,-91.859" /><path
         id="path224"
         style="fill:#236dbc;fill-opacity:1;fill-rule:nonzero;stroke:none"
         d="m 13417,612.012 c -243.4,108.148 -325.1,93.558 -719.4,351.488 -457.7,299.34 -429.7,421.98 -546.9,421.98 -117.2,0 -240.9,-197.69 -475.7,-431.031 -230.5,-229.09 -385,-252.289 -790.5,-306.39 v -244.2 H 13417 v 208.153" /><path
         id="path226"
         style="fill:none;stroke:#ffffff;stroke-width:30;stroke-linecap:round;stroke-linejoin:miter;stroke-miterlimit:10;stroke-dasharray:none;stroke-opacity:1"
         d="m 13417,611.75 c -243.4,108.18 -325.1,93.59 -719.4,351.5 -457.7,299.34 -429.7,421.96 -546.9,421.96 -117.2,0 -240.9,-197.66 -475.7,-431.019 -230.5,-229.082 -385,-252.293 -790.5,-306.382" /><path
         id="path228"
         style="fill:none;stroke:#ffffff;stroke-width:30;stroke-linecap:round;stroke-linejoin:miter;stroke-miterlimit:10;stroke-dasharray:none;stroke-opacity:1"
         d="m 13172.7,640.891 c -165.3,81.73 -397.3,176.429 -580.1,296.32 -212.7,139.519 -351.1,296.329 -430.7,296.329 -79.5,0 -156.9,-158.58 -316.3,-334.958 -156.6,-173.133 -257.9,-178.141 -393.1,-230.453" /><path
         id="path230"
         style="fill:none;stroke:#ffffff;stroke-width:30;stroke-linecap:round;stroke-linejoin:miter;stroke-miterlimit:10;stroke-dasharray:none;stroke-opacity:1"
         d="m 13172.7,640.891 c -104.2,10.8 -361.7,119.089 -535.7,228.218 -202.5,126.981 -361.5,279.351 -437.3,279.351 -75.7,0 -121.2,-115.82 -279.7,-269.741 -86.4,-83.867 -193,-153.399 -321.7,-201.02" /><path
         id="path232"
         style="fill:none;stroke:#ffffff;stroke-width:30;stroke-linecap:round;stroke-linejoin:miter;stroke-miterlimit:10;stroke-dasharray:none;stroke-opacity:1"
         d="m 12732.7,704.059 c -66.9,6.902 -146.6,52.402 -258.3,121.89 -129.9,80.832 -231.9,177.871 -280.5,177.871 -48.7,0 -77.8,-95 -179.6,-193.011 -55.4,-53.399 -184.5,-139.59 -267.1,-169.918" /><path
         id="path234"
         style="fill:none;stroke:#ffffff;stroke-width:30;stroke-linecap:round;stroke-linejoin:miter;stroke-miterlimit:10;stroke-dasharray:none;stroke-opacity:1"
         d="m 12878.2,571.73 c -81.6,6.899 -178.9,31.141 -315.3,100.622 -158.6,80.859 -283.2,199.136 -342.6,199.136 -59.3,0 -63,-105.629 -187.2,-203.636 C 11965.4,614.43 11793.3,561.75 11675,561.75" /><path
         id="path236"
         style="fill:#236dbc;fill-opacity:1;fill-rule:nonzero;stroke:none"
         d="m 11959.3,467.949 c 243.3,108.133 325,93.563 719.4,351.473 457.6,299.348 429.7,421.988 546.9,421.988 117.1,0 240.9,-197.71 475.7,-431.051 C 13931.8,581.301 14086.2,558.07 14491.8,504 V 259.789 h -2532.5 v 208.16" /><path
         id="path238"
         style="fill:none;stroke:#ffffff;stroke-width:30;stroke-linecap:round;stroke-linejoin:miter;stroke-miterlimit:10;stroke-dasharray:none;stroke-opacity:1"
         d="m 11959.3,467.68 c 243.3,108.172 325,93.57 719.4,351.511 457.6,299.329 429.7,421.959 546.9,421.959 117.1,0 240.9,-197.69 475.7,-431.06 230.5,-229.051 384.9,-252.25 790.5,-306.34" /><path
         id="path240"
         style="fill:none;stroke:#ffffff;stroke-width:30;stroke-linecap:round;stroke-linejoin:miter;stroke-miterlimit:10;stroke-dasharray:none;stroke-opacity:1"
         d="m 12203.6,496.801 c 165.2,81.738 397.2,176.461 580,296.32 212.7,139.52 351.1,296.329 430.7,296.329 79.6,0 156.9,-158.552 316.4,-334.93 156.6,-173.141 257.9,-178.149 393.1,-230.45" /><path
         id="path242"
         style="fill:none;stroke:#ffffff;stroke-width:30;stroke-linecap:round;stroke-linejoin:miter;stroke-miterlimit:10;stroke-dasharray:none;stroke-opacity:1"
         d="m 12203.6,496.801 c 104.2,10.82 361.7,119.09 535.7,228.219 202.5,126.98 361.5,279.38 437.2,279.38 75.8,0 121.2,-115.83 279.8,-269.752 86.3,-83.859 193,-153.418 321.7,-201.039" /><path
         id="path244"
         style="fill:none;stroke:#ffffff;stroke-width:30;stroke-linecap:round;stroke-linejoin:miter;stroke-miterlimit:10;stroke-dasharray:none;stroke-opacity:1"
         d="m 12643.6,559.988 c 66.9,6.883 146.6,52.383 258.2,121.871 130,80.86 232,177.86 280.6,177.86 48.6,0 77.8,-94.981 179.5,-192.989 55.4,-53.421 184.6,-139.601 267.2,-169.929" /><path
         id="path246"
         style="fill:none;stroke:#ffffff;stroke-width:30;stroke-linecap:round;stroke-linejoin:miter;stroke-miterlimit:10;stroke-dasharray:none;stroke-opacity:1"
         d="m 12498,427.66 c 81.7,6.91 179,31.121 315.3,100.629 158.7,80.832 283.2,199.133 342.6,199.133 59.4,0 63.1,-105.66 187.3,-203.66 67.7,-53.391 239.8,-106.114 358.1,-106.114" /><path
         id="path248"
         style="fill:#236dbc;fill-opacity:1;fill-rule:nonzero;stroke:none"
         d="m 9187.11,286.441 c 296.17,130.911 395.59,113.27 875.49,425.547 557.1,362.412 523,510.902 665.6,510.902 142.6,0 293.3,-239.378 579,-521.89 280.5,-277.328 468.5,-305.43 962.1,-370.91 V 34.4102 H 9187.11 V 286.441" /><path
         id="path250"
         style="fill:none;stroke:#ffffff;stroke-width:30;stroke-linecap:round;stroke-linejoin:miter;stroke-miterlimit:10;stroke-dasharray:none;stroke-opacity:1"
         d="m 9187.11,286.141 c 296.17,130.929 395.59,113.257 875.49,425.55 557.1,362.409 523,510.889 665.6,510.889 142.6,0 293.3,-239.361 579,-521.889 280.5,-277.32 468.5,-305.429 962.1,-370.902" /><path
         id="path252"
         style="fill:none;stroke:#ffffff;stroke-width:30;stroke-linecap:round;stroke-linejoin:miter;stroke-miterlimit:10;stroke-dasharray:none;stroke-opacity:1"
         d="m 9484.39,321.379 c 201.18,98.973 483.53,213.641 706.01,358.781 258.8,168.91 427.3,358.79 524.2,358.79 96.8,0 190.9,-192.001 385,-405.552 190.6,-209.617 313.9,-215.679 478.4,-279.027" /><path
         id="path254"
         style="fill:none;stroke:#ffffff;stroke-width:30;stroke-linecap:round;stroke-linejoin:miter;stroke-miterlimit:10;stroke-dasharray:none;stroke-opacity:1"
         d="m 9484.39,321.379 c 126.86,13.109 440.26,144.191 652.01,276.312 246.5,153.739 440,338.239 532.2,338.239 92.2,0 147.5,-140.219 340.4,-326.598 105.1,-101.523 234.9,-185.73 391.6,-243.402" /><path
         id="path256"
         style="fill:none;stroke:#ffffff;stroke-width:30;stroke-linecap:round;stroke-linejoin:miter;stroke-miterlimit:10;stroke-dasharray:none;stroke-opacity:1"
         d="m 10020,397.852 c 81.4,8.367 178.4,63.457 314.3,147.609 158.1,97.867 282.2,215.34 341.4,215.34 59.2,0 94.7,-115.039 218.5,-233.672 67.5,-64.68 224.6,-169.047 325.2,-205.75" /><path
         id="path258"
         style="fill:none;stroke:#ffffff;stroke-width:30;stroke-linecap:round;stroke-linejoin:miter;stroke-miterlimit:10;stroke-dasharray:none;stroke-opacity:1"
         d="m 9842.78,237.66 c 99.38,8.34 217.82,37.692 383.72,121.801 193.1,97.91 344.7,241.109 417,241.109 72.2,0 76.7,-127.89 227.9,-246.539 82.4,-64.66 291.9,-128.5 435.8,-128.5" /><path
         id="path260"
         style="fill:#236dbc;fill-opacity:1;fill-rule:nonzero;stroke:none"
         d="m 16181.4,274.621 c -273.9,121.719 -365.9,105.289 -809.8,395.66 -515.2,336.949 -483.7,475.029 -615.6,475.029 -131.9,0 -271.2,-222.572 -535.5,-485.251 C 13961,402.211 13787.1,376.07 13330.5,315.18 V 40.3203 h 2850.9 V 274.621" /><path
         id="path262"
         style="fill:none;stroke:#ffffff;stroke-width:30;stroke-linecap:round;stroke-linejoin:miter;stroke-miterlimit:10;stroke-dasharray:none;stroke-opacity:1"
         d="m 16181.4,274.32 c -273.9,121.762 -365.9,105.34 -809.8,395.66 -515.2,337 -483.7,475.03 -615.6,475.03 -131.9,0 -271.2,-222.522 -535.5,-485.209 -259.5,-257.871 -433.4,-284.012 -890,-344.891" /><path
         id="path264"
         style="fill:none;stroke:#ffffff;stroke-width:30;stroke-linecap:round;stroke-linejoin:miter;stroke-miterlimit:10;stroke-dasharray:none;stroke-opacity:1"
         d="m 15906.5,307.102 c -186.1,92.027 -447.2,198.636 -653,333.597 -239.5,157.039 -395.3,333.563 -484.9,333.563 -89.5,0 -176.6,-178.512 -356.2,-377.051 -176.2,-194.922 -290.2,-200.512 -442.5,-259.441" /><path
         id="path266"
         style="fill:none;stroke:#ffffff;stroke-width:30;stroke-linecap:round;stroke-linejoin:miter;stroke-miterlimit:10;stroke-dasharray:none;stroke-opacity:1"
         d="m 15906.5,307.102 c -117.4,12.179 -407.3,134.046 -603.2,256.918 -227.9,142.941 -406.8,314.46 -492.1,314.46 -85.3,0 -136.5,-130.339 -314.9,-303.648 -97.3,-94.402 -217.3,-172.66 -362.2,-226.281" /><path
         id="path268"
         style="fill:none;stroke:#ffffff;stroke-width:30;stroke-linecap:round;stroke-linejoin:miter;stroke-miterlimit:10;stroke-dasharray:none;stroke-opacity:1"
         d="m 15411.1,378.219 c -75.3,7.769 -165,58.972 -290.7,137.222 -146.3,91.008 -261.1,200.219 -315.9,200.219 -54.7,0 -87.5,-106.949 -202,-217.262 -62.4,-60.136 -207.8,-157.16 -300.8,-191.296" /><path
         id="path270"
         style="fill:none;stroke:#ffffff;stroke-width:30;stroke-linecap:round;stroke-linejoin:miter;stroke-miterlimit:10;stroke-dasharray:none;stroke-opacity:1"
         d="m 15575,229.262 c -91.9,7.777 -201.5,35.047 -355,113.25 -178.6,91.039 -318.8,224.207 -385.6,224.207 -66.9,0 -71,-118.938 -210.8,-229.258 -76.2,-60.121 -270,-119.449 -403.1,-119.449" /></g></g></svg>