<?xml version="1.0" encoding="UTF-8" standalone="no"?>
<svg
   xmlns:dc="http://purl.org/dc/elements/1.1/"
   xmlns:cc="http://creativecommons.org/ns#"
   xmlns:rdf="http://www.w3.org/1999/02/22-rdf-syntax-ns#"
   xmlns:svg="http://www.w3.org/2000/svg"
   xmlns="http://www.w3.org/2000/svg"
   viewBox="0 0 2548.7866 1951.72"
   height="1951.72"
   width="2548.7866"
   xml:space="preserve"
   id="svg2"
   version="1.1"><metadata
     id="metadata8"><rdf:RDF><cc:Work
         rdf:about=""><dc:format>image/svg+xml</dc:format><dc:type
           rdf:resource="http://purl.org/dc/dcmitype/StillImage" /></cc:Work></rdf:RDF></metadata><defs
     id="defs6" /><g
     transform="matrix(1.3333333,0,0,-1.3333333,0,1951.72)"
     id="g10"><g
       transform="scale(0.1)"
       id="g12"><path
         id="path14"
         style="fill:#231f20;fill-opacity:1;fill-rule:nonzero;stroke:none"
         d="m 3072.27,14637.7 c -73.29,-2.3 -152.2,-29.4 -241.75,-100 -219.24,84.6 -431.96,114 -622.1,-58.2 -293.63,38.1 -389.03,-40.5 -461.34,-132.3 -64.46,1.4 -482.31,66.3 -673.96,-219.6 -481.561,57 -633.761,-283.2 -461.3,-600.5 -98.375,-152.2 -200.297,-302.7 29.703,-593 -81.347,-161.6 -30.894,-337 160.762,-549.2 -50.547,-227.3 48.848,-387.6 227.205,-512.6 -33.381,-311 285.2,-491.9 380.3,-556.3 36.54,-181.2 112.65,-352.2 476.5,-446.7 60.02,-270.1 278.68,-316.8 490.48,-373.4 C 1676.86,10089 1076.67,9553.78 1080.73,8240.4 L 978.191,8057.51 C 175.664,7569.5 -546.367,6000.86 582.734,4725.91 656.469,4326.8 780.156,4040.2 890.281,3722.9 1054.99,2444.5 2129.94,1845.8 2413.51,1775 c 415.45,-316.4 857.95,-616.7 1456.81,-827.098 564.42,-582.101 1175.96,-804 1790.82,-803.703 9.05,0 1253.65,221.602 1818.15,803.703 C 8078.06,1158.3 8520.56,1458.6 8936.1,1775 c 283.47,70.8 1358.4,669.5 1523.1,1947.9 110.2,317.3 233.9,603.9 307.6,1003.01 1129,1275.08 407,2843.75 -395.4,3331.78 l -102.8,182.88 c 4.1,1313.26 -596.07,1848.53 -1295.97,2255.53 211.75,56.6 430.49,103.3 490.43,373.3 363.84,94.6 440.01,265.6 476.49,446.8 95.15,64.4 413.65,245.2 380.35,556.3 178.3,124.9 277.7,285.3 227.2,512.5 191.7,212.3 242.1,387.7 160.7,549.3 230.1,290.2 128,440.6 29.8,592.8 172.3,317.3 20.2,657.6 -461.5,600.6 -191.5,285.8 -609.33,220.9 -673.96,219.6 -72.28,91.7 -167.68,170.3 -461.3,132.3 -190.16,172.1 -402.78,142.8 -622.1,58.2 -260.41,205.5 -432.7,40.8 -629.55,-21.5 -315.29,103 -387.42,-38.1 -542.32,-95.6 -343.87,72.6 -448.36,-85.5 -613.15,-252.5 l -191.8,3.8 c -518.6,-305.6 -776.28,-928 -867.61,-1247.9 -91.31,320 -348.42,942.3 -866.94,1247.9 l -191.74,-3.8 c -165.05,167 -269.53,325.1 -613.37,252.5 -154.95,57.5 -226.78,198.6 -542.35,95.6 -129.17,40.8 -248,125.8 -387.87,121.4" /><path
         id="path16"
         style="fill:#76b73c;fill-opacity:1;fill-rule:nonzero;stroke:none"
         d="m 9340.56,13293.1 c -1375.77,-709.5 -2175.69,-1283.2 -2613.89,-1772 224.41,-899.5 1395.16,-940.5 1823.24,-915.3 -87.65,40.8 -160.8,89.7 -186.7,164.7 107.42,76.4 488.29,8.1 754.16,157.5 -102.13,21.2 -149.88,41.8 -197.67,117.1 251.24,80.2 521.85,149.2 680.97,282 -85.88,-1.1 -166.08,-19.3 -278.24,58.5 225.04,121.3 465.15,217.4 651.71,402.8 -116.39,2.8 -241.8,1.1 -278.25,43.9 205.94,127.6 379.71,269.5 523.51,424.7 -162.8,-19.7 -231.53,-2.8 -270.89,25.6 155.69,159.5 352.69,294.1 446.69,490.6 -120.9,-41.7 -231.5,-57.6 -311.3,3.6 52.9,119.4 279.6,189.8 410.1,468.7 -127.3,-12.4 -262.2,-27.8 -289.2,0 59.1,240.7 160.5,376 259.9,516.2 -272.3,4 -685.02,-1.1 -666.35,22 l 168.42,172.1 c -266.05,71.5 -538.25,-11.6 -735.9,-73.3 -88.71,70 1.56,158.6 109.82,248.9 -226.05,-30.1 -430.4,-82.1 -615.04,-153.7 -98.69,89.1 64.06,178.2 142.8,267.2 -349.32,-66.2 -497.3,-159.3 -644.41,-252.6 -106.71,102.3 -6.06,189.2 65.93,278.3 -263.38,-97.6 -399.04,-223.5 -541.84,-347.8 -48.46,65.3 -123.04,113.2 -32.99,270.9 -186.95,-107.8 -327.81,-234.8 -431.99,-377.1 -115.72,73.7 -68.94,174.4 -69.56,267.3 -194.36,-158.1 -317.69,-326.3 -468.65,-490.6 -30.42,22.1 -57.02,97.2 -80.56,216 -463.6,-449.8 -1118.73,-1582.7 -168.38,-2031.9 808.35,667.2 1774.24,1152 2844.73,1515.7 h -0.17 m -7300.84,0 c 1375.95,-709.4 2175.88,-1283.3 2614.12,-1772 -224.42,-899.5 -1395.2,-940.5 -1823.28,-915.3 87.65,40.8 160.8,89.7 186.73,164.7 -107.42,76.4 -488.3,8.1 -754.21,157.5 102.15,21.2 149.94,41.8 197.68,117.1 -251.19,80.2 -521.8,149.2 -680.97,282 85.88,-1.1 166.08,-19.3 278.24,58.5 -224.99,121.3 -465.1,217.4 -651.65,402.8 116.33,2.8 241.75,1.1 278.23,43.9 -205.92,127.6 -379.71,269.5 -523.54,424.7 162.79,-19.7 231.56,-2.8 270.92,25.6 -155.69,159.5 -352.71,294.1 -446.662,490.6 120.862,-41.7 231.472,-57.6 311.182,3.6 -52.89,119.4 -279.53,189.8 -410.041,468.7 127.281,-12.4 262.231,-27.8 289.231,0 -59.05,240.6 -160.4,375.9 -259.794,516.1 272.344,4 685.004,-1 666.344,22 l -168.43,172 c 266.05,71.7 538.26,-11.5 735.91,-73.2 88.7,70 -1.6,158.6 -109.87,249 226.1,-30.2 430.4,-82.2 615.09,-153.8 98.64,89.1 -64.06,178.2 -142.8,267.3 349.31,-66.3 497.29,-159.4 644.34,-252.7 106.72,102.3 6.13,189.3 -65.87,278.3 263.38,-97.6 399.06,-223.5 541.85,-347.8 48.42,65.3 123.03,113.3 32.93,270.9 187.01,-107.8 327.86,-234.8 432.03,-377.1 115.72,73.7 68.95,174.4 69.57,267.3 194.36,-158.1 317.7,-326.3 468.65,-490.6 30.42,22.2 57.03,97.2 80.56,216 463.6,-449.8 1118.72,-1582.7 168.39,-2031.9 -808.79,667 -1774.74,1151.9 -2845.18,1515.6 l 0.3,0.2" /><path
         id="path18"
         style="fill:#bd1f5a;fill-opacity:1;fill-rule:nonzero;stroke:none"
         d="m 8066.85,4217.8 c -510.06,-597.4 -794.07,-1687.1 -422.03,-2038 355.8,-272.6 1310.82,-234.5 2016.27,744.3 512.21,657.5 340.61,1755.38 48.01,2046.92 C 9274.45,5307.21 8650.46,4876.95 8066.85,4218 v -0.2 m -4796.94,-180 c 471.4,-568 686.33,-1565.7 292.91,-1859.9 -372.19,-224.6 -1276.01,-132.1 -1918.42,790.8 -433.28,774.4 -377.46,1562.5 -73.24,1794.01 454.91,277.08 1157.78,-97.24 1698.79,-724.91 h -0.04 m 2445.63,-1904 C 6377.67,2162.7 7266.13,1920.6 7267.9,1599.3 7278.9,1287.4 6462.12,582.5 5671.65,596.102 4852.98,560.801 4050.22,1266.7 4060.73,1511.4 c -12.28,358.8 996.81,638.9 1654.81,622.4 m -46.37,8431.5 c -759.43,19.7 -1488.3,-563.6 -1490.07,-902.05 -2.08,-411.15 600.46,-832.16 1495.27,-842.85 913.72,-6.5 1496.79,337 1499.72,761.32 3.37,480.78 -831.04,990.98 -1504.92,983.58 v 0 M 3841.38,10243.5 C 2568.85,10458.4 1510.16,9702.22 1552.9,8322.54 1594.75,7793.6 4310.21,10164.7 3841.38,10243.5 m 3515.68,-40.5 c 1272.42,214.9 2331.21,-541.13 2288.47,-1920.88 -41.85,-529 -2757.26,1842.08 -2288.47,1920.88 M 9862.25,7784.29 c -737.43,197.59 -248.96,-3050.5 350.95,-2784.01 659.9,530.82 872.5,2085.39 -350.95,2784.01 M 1341.47,7743.81 C 2078.78,7941.44 1590.4,4693.5 990.473,4959.98 330.563,5490.76 118.031,7045.15 1341.47,7743.81 m 5256.41,812.51 c -682.87,-447.42 -806,-1461.65 -274.96,-2265.25 531.07,-803.64 1515.21,-1092.43 2198.12,-644.97 682.92,447.42 806.04,1461.6 274.97,2265.25 -531.04,803.6 -1515.16,1092.38 -2198.13,644.97 m -1843.24,-81 C 5437.57,8027.86 5560.69,7013.67 5029.61,6210.07 4498.54,5406.44 3514.4,5117.65 2831.49,5565.06 c -682.92,447.46 -805.99,1461.65 -274.97,2265.25 531.09,803.63 1515.21,1092.42 2198.12,645.01 M 7356.47,4133.7 c 4.8,-839.3 -729.24,-1523.4 -1639.47,-1527.8 -910.25,-4.4 -1652.06,672.5 -1656.83,1511.8 -0.05,5.4 -0.05,10.7 0,16 -4.8,839.37 729.2,1523.39 1639.46,1527.84 910.26,4.43 1652.02,-672.42 1656.84,-1511.84 v -16" /><g
         transform="scale(1.17276)"
         id="g20"><path
           id="path22"
           style="fill:#ee972a;fill-opacity:1;fill-rule:nonzero;stroke:none"
           d="M 16158.4,3588.8 C 15526.1,1052.73 12957.3,-490.549 10420.9,141.716 7885.67,773.985 6342.24,3342.8 6974.67,5878.76 c 631.99,2536.4 3200.63,4079.99 5736.23,3447.7 2536.4,-632.29 4079.7,-3201.37 3447.3,-5737.66 h 0.2" /></g><path
         id="path24"
         style="fill:#ffffff;fill-opacity:1;fill-rule:nonzero;stroke:none"
         d="M 14808.9,6353.77 C 14637.1,5665.69 13577.1,6015.28 13233,6100.99 l 303.3,1216.2 c 344.1,-85.7 1451.6,-245.66 1272.6,-963.42 z M 14620.7,4391.2 c -188.4,-756.4 -1461.9,-347.7 -1875,-245 l 334.5,1340.96 c 412.9,-103.05 1736.9,-307.09 1540.6,-1095.96 z m 1391.9,1951.65 c 110.4,738.74 -452.1,1135.87 -1221.2,1400.8 l 249.5,1000.72 -609.3,151.81 -243,-974.35 c -159.9,39.91 -324.4,77.56 -487.8,114.85 l 244.6,980.79 -608.8,151.79 -249.6,-1000.37 c -132.6,30.19 -262.7,60.03 -389,91.43 l 0.7,3.13 -840.1,209.76 -162,-650.62 c 0,0 451.9,-103.58 442.4,-110 246.7,-61.59 291.4,-224.86 283.8,-354.28 l -284.2,-1140.04 c 17,-4.34 39.1,-10.58 63.3,-20.3 l -64.1,15.95 -398.6,-1597.02 c -30.1,-74.9 -106.7,-187.4 -279.1,-144.7 6.1,-8.8 -442.8,110.5 -442.8,110.5 l -302.4,-697.4 792.9,-197.6 c 147.5,-37 292,-75.7 434.1,-112.1 l -252.1,-1012.4 608.4,-151.8 249.9,1001.4 c 166,-45.1 327.4,-86.7 485.3,-125.9 l -248.8,-996.8 609.1,-151.8 252.1,1010.3 c 1038.7,-196.6 1820,-117.3 2148.4,822 264.9,756.47 -13,1192.81 -559.5,1477.52 398,92.12 697.8,353.94 777.8,894.73 h 0.1" /></g></g></svg>