<?xml version="1.0" encoding="UTF-8" standalone="no"?>
<svg
   xmlns:dc="http://purl.org/dc/elements/1.1/"
   xmlns:cc="http://creativecommons.org/ns#"
   xmlns:rdf="http://www.w3.org/1999/02/22-rdf-syntax-ns#"
   xmlns:svg="http://www.w3.org/2000/svg"
   xmlns="http://www.w3.org/2000/svg"
   viewBox="0 0 319.65332 59.666668"
   height="59.666668"
   width="319.65332"
   xml:space="preserve"
   id="svg2"
   version="1.1"><metadata
     id="metadata8"><rdf:RDF><cc:Work
         rdf:about=""><dc:format>image/svg+xml</dc:format><dc:type
           rdf:resource="http://purl.org/dc/dcmitype/StillImage" /></cc:Work></rdf:RDF></metadata><defs
     id="defs6" /><g
     transform="matrix(1.3333333,0,0,-1.3333333,0,59.666667)"
     id="g10"><g
       transform="scale(0.1)"
       id="g12"><path
         id="path14"
         style="fill:#DDDDDD;fill-opacity:1;fill-rule:nonzero;stroke:none"
         d="M 98.4922,335.621 322.258,447.465 420.691,398.227 196.93,286.383 98.4922,335.621" /><path
         id="path16"
         style="fill:#d1466f;fill-opacity:1;fill-rule:nonzero;stroke:none"
         d="M 98.4922,335.621 98.4766,223.75 322.207,111.836 322.223,223.711 98.4922,335.621" /><path
         id="path18"
         style="fill:#DDDDDD;fill-opacity:1;fill-rule:nonzero;stroke:none"
         d="M 0,49.2383 223.773,161.074 322.207,111.836 98.4375,0 0,49.2383" /><path
         id="path20"
         style="fill:#DDDDDD;fill-opacity:1;fill-rule:nonzero;stroke:none"
         d="m 419.961,159.719 c 10.078,-6.133 30.957,-13.321 47.152,-13.321 16.559,0 23.399,5.758 23.399,14.747 0,9.003 -5.399,13.32 -25.918,20.164 -36.352,12.238 -50.391,32.043 -50.031,52.91 0,32.765 28.074,57.594 71.628,57.594 20.52,0 38.875,-4.68 49.676,-10.083 l -9.719,-37.792 c -7.921,4.316 -23.039,10.078 -38.156,10.078 -13.32,0 -20.879,-5.395 -20.879,-14.399 0,-8.277 6.84,-12.594 28.438,-20.152 33.476,-11.524 47.515,-28.438 47.879,-54.356 0,-32.754 -25.918,-56.875 -76.317,-56.875 -23.035,0 -43.554,5.039 -56.871,12.246 l 9.719,39.239" /><path
         id="path22"
         style="fill:#DDDDDD;fill-opacity:1;fill-rule:nonzero;stroke:none"
         d="m 742.496,168.352 c 0,-23.039 0.723,-41.758 1.442,-56.516 h -47.516 l -2.52,24.836 h -1.082 c -6.84,-10.805 -23.394,-28.789 -55.07,-28.789 -35.637,0 -61.914,22.312 -61.914,76.66 v 103.309 h 55.07 v -94.668 c 0,-25.555 8.282,-41.028 27.36,-41.028 15.117,0 23.754,10.434 27.359,19.074 1.441,3.235 1.797,7.559 1.797,11.875 v 104.747 h 55.074 v -119.5" /><path
         id="path24"
         style="fill:#DDDDDD;fill-opacity:1;fill-rule:nonzero;stroke:none"
         d="m 841.148,187.434 c 0,-4.329 0.36,-8.282 1.079,-11.528 3.597,-14.761 16.203,-25.918 32.035,-25.918 23.761,0 37.801,19.809 37.801,49.668 0,28.086 -12.598,49.321 -37.079,49.321 -15.476,0 -29.16,-11.516 -32.757,-27.715 -0.719,-2.871 -1.079,-6.477 -1.079,-9.719 z m -54.71,41.386 c 0,23.043 -0.723,42.832 -1.442,59.032 h 47.516 l 2.515,-24.473 h 0.719 c 12.961,18.723 33.117,28.434 58.672,28.434 38.516,0 73.07,-33.473 73.07,-89.633 0,-64.067 -40.672,-94.297 -79.906,-94.297 -21.238,0 -37.797,8.633 -45.711,20.152 h -0.723 V 40.5586 h -54.71 V 228.82" /><path
         id="path26"
         style="fill:#DDDDDD;fill-opacity:1;fill-rule:nonzero;stroke:none"
         d="m 1109.34,219.824 c 0,13.313 -5.77,35.637 -30.96,35.637 -23.04,0 -32.4,-20.883 -33.84,-35.637 z m -64.44,-37.429 c 1.8,-22.676 24.12,-33.477 49.68,-33.477 18.72,0 33.83,2.52 48.59,7.187 l 7.2,-37.074 c -18,-7.195 -39.95,-10.797 -63.71,-10.797 -59.76,0 -93.949,34.559 -93.949,89.629 0,44.637 27.709,93.95 88.909,93.95 56.87,0 78.47,-44.274 78.47,-87.829 0,-9.367 -1.08,-17.636 -1.8,-21.589 H 1044.9" /><path
         id="path28"
         style="fill:#DDDDDD;fill-opacity:1;fill-rule:nonzero;stroke:none"
         d="m 1192.87,229.902 c 0,25.911 -0.72,42.832 -1.44,57.95 h 47.16 l 1.8,-32.391 h 1.43 c 9.01,25.555 30.6,36.352 47.52,36.352 5.04,0 7.56,0 11.51,-0.719 v -51.477 c -3.95,0.727 -8.63,1.449 -14.75,1.449 -20.16,0 -33.84,-10.8 -37.43,-27.714 -0.73,-3.614 -1.09,-7.93 -1.09,-12.247 v -89.269 h -54.71 v 118.066" /><path
         id="path30"
         style="fill:#DDDDDD;fill-opacity:1;fill-rule:nonzero;stroke:none"
         d="m 1329.66,231.699 c 0,21.961 -0.71,40.672 -1.43,56.153 h 47.51 l 2.52,-24.114 h 1.08 c 7.2,11.157 25.2,28.075 54.36,28.075 35.99,0 62.98,-23.754 62.98,-75.59 V 111.836 h -54.7 v 97.551 c 0,22.676 -7.92,38.152 -27.73,38.152 -15.11,0 -24.11,-10.437 -27.71,-20.516 -1.44,-3.246 -2.16,-8.632 -2.16,-13.671 V 111.836 h -54.72 v 119.863" /><path
         id="path32"
         style="fill:#DDDDDD;fill-opacity:1;fill-rule:nonzero;stroke:none"
         d="m 1587.06,200.027 c 0,-30.23 12.59,-52.918 35.99,-52.918 21.24,0 34.92,21.243 34.92,52.918 0,26.274 -10.07,52.914 -34.92,52.914 -26.28,0 -35.99,-26.996 -35.99,-52.914 z m 127.42,1.797 c 0,-64.429 -45.72,-93.941 -92.86,-93.941 -51.48,0 -91.08,33.828 -91.08,90.703 0,56.875 37.44,93.227 93.96,93.227 53.99,0 89.98,-37.075 89.98,-89.989" /><path
         id="path34"
         style="fill:#DDDDDD;fill-opacity:1;fill-rule:nonzero;stroke:none"
         d="m 1865.33,213.352 c 0,2.871 -0.36,6.836 -0.73,9.707 -3.23,14.761 -15.11,27 -32.03,27 -24.83,0 -37.79,-22.317 -37.79,-50.032 0,-29.879 14.76,-48.589 37.43,-48.589 15.84,0 28.44,10.8 31.68,26.265 1.08,3.969 1.44,7.922 1.44,12.602 z m 54.71,154.05 V 164.387 c 0,-19.797 0.72,-40.664 1.44,-52.551 h -48.59 l -2.52,25.918 h -0.73 c -11.15,-19.793 -32.39,-29.871 -55.06,-29.871 -41.76,0 -75.24,35.625 -75.24,90.351 -0.35,59.383 36.72,93.579 78.84,93.579 21.59,0 38.51,-7.567 46.42,-19.79 h 0.73 v 95.379 h 54.71" /><path
         id="path36"
         style="fill:#DDDDDD;fill-opacity:1;fill-rule:nonzero;stroke:none"
         d="m 2070.52,219.824 c 0,13.313 -5.76,35.637 -30.95,35.637 -23.04,0 -32.4,-20.883 -33.84,-35.637 z m -64.43,-37.429 c 1.8,-22.676 24.12,-33.477 49.68,-33.477 18.71,0 33.82,2.52 48.59,7.187 l 7.2,-37.074 c -18,-7.195 -39.96,-10.797 -63.71,-10.797 -59.76,0 -93.96,34.559 -93.96,89.629 0,44.637 27.73,93.95 88.92,93.95 56.86,0 78.46,-44.274 78.46,-87.829 0,-9.367 -1.08,-17.636 -1.79,-21.589 h -113.39" /><path
         id="path38"
         style="fill:#DDDDDD;fill-opacity:1;fill-rule:nonzero;stroke:none"
         d="m 2144.34,140.988 c 0,19.442 13.32,33.477 32.39,33.477 19.09,0 32.04,-13.672 32.04,-33.477 0,-19.074 -12.95,-33.105 -32.4,-33.105 -18.71,0 -32.03,14.031 -32.03,33.105" /><path
         id="path40"
         style="fill:#DDDDDD;fill-opacity:1;fill-rule:nonzero;stroke:none"
         d="m 2241.9,367.402 h 54.72 V 111.836 h -54.72 v 255.566" /><path
         id="path42"
         style="fill:#DDDDDD;fill-opacity:1;fill-rule:nonzero;stroke:none"
         d="m 2340.89,111.836 v 176.016 h 54.72 V 111.836 Z m 56.52,224.973 c 0,-15.118 -11.52,-27.356 -29.51,-27.356 -17.28,0 -28.8,12.238 -28.44,27.356 -0.36,15.839 11.16,27.718 28.8,27.718 17.63,0 28.79,-11.879 29.15,-27.718" /></g></g></svg>